<svg width="25" height="27" viewBox="0 0 25 27" fill="none" xmlns="http://www.w3.org/2000/svg">
<path d="M24.5536 1.8H21.4286V0.45C21.4286 0.20115 21.229 0 20.9821 0H17.8571C17.6103 0 17.4107 0.20115 17.4107 0.45V1.8H7.58929V0.45C7.58929 0.20115 7.38973 0 7.14286 0H4.01786C3.77098 0 3.57143 0.20115 3.57143 0.45V1.8H0.446429C0.199554 1.8 0 2.00115 0 2.25V7.2V26.55C0 26.7988 0.199554 27 0.446429 27H24.5536C24.8004 27 25 26.7988 25 26.55V7.2V2.25C25 2.00115 24.8004 1.8 24.5536 1.8ZM18.3036 0.9H20.5357V2.25V3.6H18.3036V2.25V0.9ZM4.46429 0.9H6.69643V2.25V3.6H4.46429V2.25V0.9ZM0.892857 2.7H3.57143V4.05C3.57143 4.29885 3.77098 4.5 4.01786 4.5H7.14286C7.38973 4.5 7.58929 4.29885 7.58929 4.05V2.7H17.4107V4.05C17.4107 4.29885 17.6103 4.5 17.8571 4.5H20.9821C21.229 4.5 21.4286 4.29885 21.4286 4.05V2.7H24.1071V6.75H0.892857V2.7ZM0.892857 26.1V7.65H24.1071V26.1H0.892857Z" fill="currentColor"/>
<path d="M16.0711 10.3496H12.9461H12.0533H8.92829H8.03543H4.01758V14.3996V15.2996V18.4496V19.3496V23.3996H8.03543H8.92829H12.0533H12.9461H16.0711H16.964H20.9819V19.3496V18.4496V15.2996V14.3996V10.3496H16.964H16.0711ZM12.9461 11.2496H16.0711V14.3996H12.9461V11.2496ZM16.0711 18.4496H12.9461V15.2996H16.0711V18.4496ZM8.92829 15.2996H12.0533V18.4496H8.92829V15.2996ZM8.92829 11.2496H12.0533V14.3996H8.92829V11.2496ZM4.91044 11.2496H8.03543V14.3996H4.91044V11.2496ZM4.91044 15.2996H8.03543V18.4496H4.91044V15.2996ZM8.03543 22.4996H4.91044V19.3496H8.03543V22.4996ZM12.0533 22.4996H8.92829V19.3496H12.0533V22.4996ZM16.0711 22.4996H12.9461V19.3496H16.0711V22.4996ZM20.089 22.4996H16.964V19.3496H20.089V22.4996ZM20.089 18.4496H16.964V15.2996H20.089V18.4496ZM20.089 11.2496V14.3996H16.964V11.2496H20.089Z" fill="currentColor"/>
</svg>
