<svg width="30" height="30" viewBox="0 0 30 30" fill="none" xmlns="http://www.w3.org/2000/svg">
<path d="M12.5379 11.2121C12.1718 10.846 11.5782 10.846 11.2121 11.2121C10.846 11.5782 10.846 12.1718 11.2121 12.5379L13.6742 15L11.2121 17.4621C10.846 17.8281 10.846 18.4218 11.2121 18.7879C11.5782 19.154 12.1718 19.154 12.5379 18.7879L15 16.3259L17.462 18.7879C17.8282 19.154 18.4218 19.154 18.7879 18.7879C19.154 18.4218 19.154 17.8281 18.7879 17.462L16.3258 15L18.7879 12.5379C19.154 12.1718 19.154 11.5782 18.7879 11.2121C18.4218 10.846 17.8282 10.846 17.462 11.2121L15 13.6741L12.5379 11.2121Z" fill="currentColor"/>
<path fill-rule="evenodd" clip-rule="evenodd" d="M15 1.5625C7.57867 1.5625 1.5625 7.57867 1.5625 15C1.5625 22.4214 7.57867 28.4375 15 28.4375C22.4214 28.4375 28.4375 22.4214 28.4375 15C28.4375 7.57867 22.4214 1.5625 15 1.5625ZM3.4375 15C3.4375 8.61421 8.61421 3.4375 15 3.4375C21.3857 3.4375 26.5625 8.61421 26.5625 15C26.5625 21.3857 21.3857 26.5625 15 26.5625C8.61421 26.5625 3.4375 21.3857 3.4375 15Z" fill="currentColor"/>
</svg>
