<svg width="20" height="20" viewBox="0 0 20 20" fill="none" xmlns="http://www.w3.org/2000/svg">
<path d="M10.6 1C10.6 0.668629 10.3314 0.4 10 0.4C9.66863 0.4 9.4 0.668629 9.4 1L10.6 1ZM9.4 12C9.4 12.3314 9.66863 12.6 10 12.6C10.3314 12.6 10.6 12.3314 10.6 12H9.4ZM14.4243 10.4243C14.6586 10.1899 14.6586 9.81005 14.4243 9.57574C14.1899 9.34142 13.8101 9.34142 13.5757 9.57574L14.4243 10.4243ZM10.7071 13.2929L10.2828 12.8686L10.7071 13.2929ZM9.29289 13.2929L9.71716 12.8686L9.29289 13.2929ZM6.42426 9.57574C6.18995 9.34142 5.81005 9.34142 5.57574 9.57574C5.34142 9.81005 5.34142 10.1899 5.57574 10.4243L6.42426 9.57574ZM1.6 14C1.6 13.6686 1.33137 13.4 1 13.4C0.668629 13.4 0.4 13.6686 0.4 14H1.6ZM19.6 14C19.6 13.6686 19.3314 13.4 19 13.4C18.6686 13.4 18.4 13.6686 18.4 14H19.6ZM17.362 18.673L17.0896 18.1384V18.1384L17.362 18.673ZM18.673 17.362L19.2076 17.6344L18.673 17.362ZM1.32698 17.362L0.792377 17.6344L1.32698 17.362ZM2.63803 18.673L2.36563 19.2076H2.36563L2.63803 18.673ZM9.4 1L9.4 12H10.6L10.6 1L9.4 1ZM13.5757 9.57574L10.2828 12.8686L11.1314 13.7172L14.4243 10.4243L13.5757 9.57574ZM9.71716 12.8686L6.42426 9.57574L5.57574 10.4243L8.86863 13.7172L9.71716 12.8686ZM10.2828 12.8686C10.1266 13.0248 9.87337 13.0248 9.71716 12.8686L8.86863 13.7172C9.49347 14.342 10.5065 14.342 11.1314 13.7172L10.2828 12.8686ZM0.4 14V14.2H1.6V14H0.4ZM5.8 19.6H14.2V18.4H5.8V19.6ZM19.6 14.2V14H18.4V14.2H19.6ZM14.2 19.6C15.0302 19.6 15.6889 19.6005 16.2193 19.5571C16.7566 19.5132 17.2148 19.4214 17.6344 19.2076L17.0896 18.1384C16.8674 18.2516 16.5847 18.3233 16.1215 18.3611C15.6514 18.3995 15.05 18.4 14.2 18.4V19.6ZM18.4 14.2C18.4 15.05 18.3995 15.6514 18.3611 16.1215C18.3233 16.5847 18.2516 16.8674 18.1384 17.0896L19.2076 17.6344C19.4214 17.2148 19.5132 16.7566 19.5571 16.2193C19.6005 15.6889 19.6 15.0302 19.6 14.2H18.4ZM17.6344 19.2076C18.3118 18.8625 18.8625 18.3118 19.2076 17.6344L18.1384 17.0896C17.9083 17.5412 17.5412 17.9083 17.0896 18.1384L17.6344 19.2076ZM0.4 14.2C0.4 15.0302 0.399533 15.6889 0.442865 16.2193C0.486769 16.7566 0.578606 17.2148 0.792376 17.6344L1.86158 17.0896C1.74837 16.8674 1.67672 16.5847 1.63888 16.1215C1.60047 15.6514 1.6 15.05 1.6 14.2H0.4ZM5.8 18.4C4.95002 18.4 4.34862 18.3995 3.87847 18.3611C3.41531 18.3233 3.13261 18.2516 2.91042 18.1384L2.36563 19.2076C2.78518 19.4214 3.24339 19.5132 3.78075 19.5571C4.3111 19.6005 4.96982 19.6 5.8 19.6V18.4ZM0.792377 17.6344C1.13752 18.3118 1.68825 18.8625 2.36563 19.2076L2.91042 18.1384C2.45883 17.9083 2.09168 17.5412 1.86158 17.0896L0.792377 17.6344Z" fill="currentColor"/>
</svg>
