<svg width="20" height="14" viewBox="0 0 20 14" fill="none" xmlns="http://www.w3.org/2000/svg">
<path d="M7.7823 2.63636C7.7823 1.73263 8.63812 1 9.69391 1C10.7496 1 11.6055 1.73263 11.6055 2.63636C11.6055 3.0617 11.4441 3.44914 11.1632 3.74013C10.6253 4.29748 9.82135 4.85883 9.82135 5.58186V5.82563M9.82135 5.82563C10.4797 5.81834 11.1407 5.99251 11.696 6.34909L18.3853 10.6436C19.5611 11.3984 18.9374 13 17.4677 13H2.53228C1.07849 13 0.444898 11.427 1.58978 10.66L7.9759 6.38174C8.51806 6.01857 9.1684 5.83283 9.82135 5.82563Z" stroke="currentColor" stroke-width="1.2" stroke-linecap="round"/>
</svg>
