<svg width="19" height="20" viewBox="0 0 19 20" fill="none" xmlns="http://www.w3.org/2000/svg">
<path fill-rule="evenodd" clip-rule="evenodd" d="M13.1429 1.60938H5.85714C3.17462 1.60938 1 3.78399 1 6.46652V13.7522C1 16.4347 3.17462 18.6094 5.85714 18.6094H13.1429C15.8253 18.6094 18 16.4347 18 13.7522V6.46652C18 3.78399 15.8253 1.60938 13.1429 1.60938Z" stroke="currentColor" stroke-width="1.4" stroke-linecap="round" stroke-linejoin="round"/>
<path fill-rule="evenodd" clip-rule="evenodd" d="M9.50003 13.7525C7.48808 13.7525 5.85718 12.1216 5.85718 10.1097C5.85718 8.0977 7.48808 6.4668 9.50003 6.4668C11.512 6.4668 13.1429 8.0977 13.1429 10.1097C13.1429 11.0757 12.7591 12.0024 12.0759 12.6855C11.3927 13.3687 10.4661 13.7525 9.50003 13.7525Z" stroke="currentColor" stroke-width="1.4" stroke-linecap="round" stroke-linejoin="round"/>
<path d="M14.3569 4.03823C13.6862 4.03823 13.1426 4.58188 13.1426 5.25251C13.1426 5.92314 13.6862 6.4668 14.3569 6.4668C15.0275 6.4668 15.5711 5.92314 15.5711 5.25251C15.5711 4.58188 15.0275 4.03823 14.3569 4.03823Z" fill="currentColor"/>
<path d="M14.3569 4.64314C14.0216 4.64314 13.7498 4.91496 13.7498 5.25028C13.7498 5.58559 14.0216 5.85742 14.3569 5.85742C14.6922 5.85742 14.964 5.58559 14.964 5.25028C14.964 4.91496 14.6922 4.64314 14.3569 4.64314Z" stroke="currentColor" stroke-width="1.4" stroke-linecap="round"/>
</svg>
