<svg width="18" height="18" viewBox="0 0 18 18" fill="none" xmlns="http://www.w3.org/2000/svg">
<path d="M13.4243 11.7455C12.8689 11.1972 12.1756 11.1972 11.6237 11.7455C11.2028 12.163 10.7818 12.5804 10.3679 13.0049C10.2547 13.1216 10.1592 13.1464 10.0212 13.0686C9.74884 12.92 9.45876 12.7997 9.19698 12.637C7.97653 11.8694 6.95418 10.8824 6.04857 9.7716C5.5993 9.21974 5.19956 8.62897 4.92009 7.96391C4.86349 7.82949 4.87411 7.74105 4.98377 7.63139C5.40474 7.22457 5.81509 6.80714 6.22898 6.38971C6.8056 5.80955 6.8056 5.13034 6.22545 4.54665C5.89646 4.21412 5.56746 3.88867 5.23847 3.55614C4.89887 3.21654 4.5628 2.87339 4.21966 2.53733C3.66427 1.99608 2.97091 1.99608 2.41905 2.54087C1.99455 2.95829 1.58773 3.38634 1.15615 3.79669C0.75641 4.17521 0.55477 4.63863 0.51232 5.17987C0.445107 6.06072 0.660897 6.89204 0.965125 7.70214C1.58773 9.37893 2.53579 10.8682 3.68549 12.2337C5.23847 14.0803 7.09214 15.5413 9.26066 16.5955C10.237 17.0695 11.2488 17.4339 12.3489 17.494C13.106 17.5365 13.7639 17.3455 14.291 16.7547C14.6519 16.3514 15.0587 15.9835 15.4407 15.5979C16.0067 15.0248 16.0103 14.3315 15.4478 13.7655C14.7757 13.0898 14.1 12.4177 13.4243 11.7455Z" fill="currentColor"/>
<path d="M12.7497 8.92687L14.0551 8.704C13.8499 7.50477 13.2839 6.41875 12.4243 5.55559C11.5151 4.64644 10.3654 4.07336 9.09899 3.89648L8.91504 5.20891C9.89494 5.34688 10.7864 5.78907 11.4904 6.49304C12.1554 7.1581 12.5905 8.00003 12.7497 8.92687Z" fill="currentColor"/>
<path d="M14.7894 3.25221C13.2824 1.74521 11.3757 0.793616 9.27087 0.5L9.08691 1.81243C10.9052 2.06713 12.5537 2.89138 13.8555 4.18965C15.0901 5.42425 15.9002 6.98431 16.1938 8.70002L17.4992 8.47715C17.156 6.48905 16.2186 4.68491 14.7894 3.25221Z" fill="currentColor"/>
</svg>
