<svg width="9" height="10" viewBox="0 0 9 10" fill="none" xmlns="http://www.w3.org/2000/svg">
<path d="M4.35719 0.52085C4.24814 0.563071 4.16723 0.625485 4.11622 0.704421C4.08808 0.746642 3.83304 1.34875 3.54985 2.04265C3.03801 3.2946 3.03449 3.30561 2.97997 3.31479C2.95006 3.31846 2.34852 3.37721 1.64143 3.44329C0.274761 3.57179 0.283555 3.56996 0.158672 3.68193C0.0373076 3.7884 -0.0295311 4.01787 0.0126828 4.18125C0.0232363 4.22347 0.0584145 4.29506 0.0900749 4.33912C0.119976 4.38501 0.570258 4.80906 1.08738 5.28083C1.6045 5.75077 2.0495 6.1583 2.07589 6.18583L2.12514 6.23356L1.83316 7.56445C1.64319 8.43457 1.54118 8.93388 1.53942 9.00548C1.53766 9.20006 1.63264 9.3616 1.80325 9.44788C1.92638 9.51213 2.07764 9.5158 2.19549 9.46073C2.23946 9.44054 2.68271 9.16885 3.18048 8.85862C3.67825 8.54839 4.17075 8.24182 4.27277 8.17757C4.37478 8.11332 4.47152 8.05642 4.48559 8.05091C4.49967 8.0454 4.97105 8.3281 5.61833 8.73196C6.22692 9.11195 6.75987 9.44054 6.80384 9.46073C6.92169 9.51764 7.07295 9.51213 7.19608 9.44788C7.36669 9.3616 7.46167 9.20006 7.45991 9.00548C7.45815 8.93388 7.35614 8.43457 7.16618 7.56445L6.87596 6.23356L6.91465 6.19501C6.93576 6.17298 7.38076 5.76546 7.90316 5.28818C8.42556 4.81273 8.87936 4.38501 8.90926 4.33912C8.98137 4.23632 9.00951 4.13168 8.9972 4.00869C8.97785 3.82145 8.85825 3.6544 8.69643 3.59015C8.64718 3.56996 8.19866 3.52039 7.29985 3.43595C6.57166 3.36619 5.97187 3.30561 5.96836 3.30194C5.96484 3.29827 5.72563 2.72186 5.43892 2.02062C5.15222 1.31938 4.89542 0.715435 4.86904 0.678721C4.75998 0.537372 4.51374 0.460272 4.35719 0.52085Z" fill="currentColor"/>
</svg>
