<svg width="24" height="24" viewBox="0 0 24 24" fill="none" xmlns="http://www.w3.org/2000/svg">
<path fill-rule="evenodd" clip-rule="evenodd" d="M12 0C5.37258 0 0 5.37258 0 12C0 18.6274 5.37258 24 12 24C18.6274 24 24 18.6274 24 12C24 5.37258 18.6274 0 12 0ZM15.1018 17.5421L17 7.38968C17 6.71395 16.1241 7.12226 16.1241 7.12226L5.46678 11.5578C5.46678 11.5578 4.96217 11.7407 5.00227 12.0788C5.04185 12.4164 5.45325 12.5717 5.45325 12.5717L8.06745 13.5049L14.8435 8.93947C15.2039 8.70741 15.3966 8.89029 15.0862 9.19749C14.8857 9.39584 10.2984 13.7717 9.70679 14.3353L9.7271 14.3458L14.1067 17.9084C14.8363 18.246 15.1018 17.5421 15.1018 17.5421Z" fill="currentColor"/>
</svg>
