<svg width="24" height="16" viewBox="0 0 24 16" fill="none" xmlns="http://www.w3.org/2000/svg">
<path d="M23.4559 1.89313C23.1859 2.74213 22.8219 3.48113 22.3659 4.15213L22.3849 4.12213C21.9369 4.8688 21.4019 5.73147 20.7799 6.71013C20.2466 7.4828 19.9643 7.8828 19.9329 7.91013C19.7949 8.08313 19.6989 8.29513 19.6659 8.52813L19.6649 8.53513C19.6919 8.74713 19.7899 8.93213 19.9329 9.07013L20.3329 9.51613C22.4729 11.7155 23.6766 13.2315 23.9439 14.0641C23.9789 14.1561 23.9989 14.2621 23.9989 14.3731C23.9989 14.5671 23.9369 14.7461 23.8319 14.8931L23.8339 14.8901C23.6579 15.0711 23.4119 15.1831 23.1399 15.1831C23.1099 15.1831 23.0789 15.1821 23.0499 15.1791H23.0539H20.4229C20.4219 15.1791 20.4199 15.1791 20.4179 15.1791C20.0809 15.1791 19.7709 15.0611 19.5279 14.8651L19.5309 14.8671C19.1769 14.5761 18.8619 14.2611 18.5799 13.9191L18.5709 13.9071C18.1103 13.3865 17.7016 12.9481 17.3449 12.5921C16.1569 11.4628 15.2803 10.8981 14.7149 10.8981C14.6939 10.8961 14.6699 10.8951 14.6449 10.8951C14.4799 10.8951 14.3259 10.9461 14.1989 11.0331L14.2019 11.0311C14.0979 11.1611 14.0349 11.3291 14.0349 11.5101C14.0349 11.5461 14.0369 11.5801 14.0419 11.6151V11.6111C14.0149 11.9251 13.9989 12.2901 13.9989 12.6591C13.9989 12.7781 14.0009 12.8961 14.0039 13.0141V12.9971V14.1561C14.0139 14.2031 14.0199 14.2571 14.0199 14.3121C14.0199 14.5541 13.9099 14.7701 13.7379 14.9131L13.7369 14.9141C13.3499 15.0911 12.8979 15.1951 12.4209 15.1951C12.3189 15.1951 12.2189 15.1901 12.1199 15.1811L12.1329 15.1821C10.5589 15.1521 9.09893 14.6911 7.85793 13.9141L7.89293 13.9341C6.38193 13.0161 5.12993 11.8211 4.17593 10.4091L4.14893 10.3671C3.24293 9.16513 2.39793 7.80713 1.67793 6.37513L1.60793 6.22113C1.18693 5.41913 0.75093 4.43313 0.37493 3.41913L0.31493 3.23413C0.16193 2.77813 0.0509297 2.24813 0.00492969 1.69913L0.00292969 1.67413C0.00292969 1.1688 0.300263 0.916133 0.89493 0.916133H3.52493C3.54893 0.914133 3.57693 0.913133 3.60593 0.913133C3.85393 0.913133 4.08293 0.998133 4.26393 1.14113L4.26193 1.13913C4.46193 1.35813 4.60993 1.62713 4.68293 1.92713L4.68593 1.93913C5.16993 3.30613 5.68293 4.45413 6.27293 5.55413L6.20593 5.41713C6.68793 6.38713 7.22093 7.22213 7.82893 7.99313L7.80593 7.96213C8.33926 8.6168 8.75526 8.94413 9.05393 8.94413C9.06293 8.94513 9.07393 8.94513 9.08593 8.94513C9.23393 8.94513 9.36293 8.86513 9.43293 8.74513L9.43393 8.74313C9.50793 8.55313 9.55093 8.33213 9.55093 8.10213C9.55093 8.05313 9.54893 8.00413 9.54493 7.95613V7.96213V4.08313C9.52393 3.62613 9.41193 3.19913 9.22493 2.81613L9.23293 2.83513C9.10893 2.57113 8.95993 2.34313 8.78293 2.14013L8.78593 2.14413C8.62193 1.98013 8.50993 1.76513 8.47493 1.52513L8.47393 1.51913C8.47393 1.34913 8.55193 1.19613 8.67393 1.09613L8.67493 1.09513C8.79593 0.984133 8.95793 0.917133 9.13493 0.917133H9.14293H13.2889C13.3109 0.914133 13.3359 0.913133 13.3619 0.913133C13.5569 0.913133 13.7319 1.00113 13.8479 1.13913L13.8489 1.14013C13.9519 1.32813 14.0129 1.55313 14.0129 1.79113C14.0129 1.82913 14.0109 1.86613 14.0079 1.90313V1.89813V7.07113C14.0059 7.09513 14.0049 7.12313 14.0049 7.15113C14.0049 7.33513 14.0559 7.50813 14.1439 7.65513L14.1419 7.65113C14.2149 7.75913 14.3369 7.82913 14.4749 7.82913C14.6509 7.81713 14.8119 7.75913 14.9469 7.66713L14.9439 7.66913C15.2159 7.48213 15.4499 7.26913 15.6529 7.02813L15.6569 7.02313C16.2639 6.33713 16.8239 5.57913 17.3119 4.77313L17.3509 4.70313C17.6949 4.13313 18.0669 3.43113 18.4039 2.71013L18.4659 2.56313L18.9119 1.67113C19.0669 1.22513 19.4829 0.911133 19.9719 0.911133C19.9909 0.911133 20.0099 0.911133 20.0289 0.912133H20.0259H22.6569C23.3676 0.912133 23.6343 1.23913 23.4569 1.89313H23.4559Z" fill="currentColor"/>
</svg>
