<svg width="24" height="24" viewBox="0 0 24 24" fill="none" xmlns="http://www.w3.org/2000/svg">
<path fill-rule="evenodd" clip-rule="evenodd" d="M12 0C5.37258 0 0 5.37258 0 12C0 18.6274 5.37258 24 12 24C18.6274 24 24 18.6274 24 12C24 5.37258 18.6274 0 12 0ZM12.3219 5.4C13.9902 5.4 15.5707 6.05625 16.7561 7.2375C17.9415 8.41875 18.5561 9.99375 18.6 11.6125C18.6 15.0688 15.7902 17.8688 12.3219 17.8688C11.2683 17.8688 10.2585 17.6063 9.33659 17.125L6 18L6.87805 14.7625C6.35122 13.8438 6.0439 12.75 6.0439 11.6562C6.0439 8.2 8.85366 5.4 12.3219 5.4ZM14.2976 14.6313C14.6049 14.5875 15.2195 14.2375 15.3512 13.8875C15.4829 13.5375 15.4829 13.2312 15.439 13.1C15.3951 13.0563 15.3073 13.0125 15.1317 12.925L15.1317 12.925C15 12.8375 14.2098 12.4438 14.078 12.4C13.9463 12.3563 13.8146 12.3125 13.7268 12.4875C13.639 12.6625 13.3317 13.0125 13.2439 13.1C13.1561 13.1875 13.0683 13.2313 12.8927 13.1438C12.8661 13.1305 12.8324 13.1152 12.7922 13.097C12.5676 12.9951 12.141 12.8017 11.6195 12.3562C11.1366 11.9187 10.8293 11.4375 10.7415 11.2625C10.6537 11.1312 10.7415 11.0437 10.8293 10.9563C10.8475 10.9381 10.8732 10.905 10.9033 10.8662C10.9459 10.8113 10.9973 10.745 11.0488 10.6937C11.1366 10.6062 11.1805 10.5188 11.2244 10.4313C11.2683 10.3438 11.2683 10.2563 11.2244 10.1687C11.1954 10.1399 11.052 9.78765 10.9198 9.46325C10.8516 9.29569 10.7863 9.13556 10.7415 9.03125C10.6237 8.7575 10.506 8.76341 10.4196 8.76774C10.4094 8.76826 10.3996 8.76875 10.3902 8.76875H10.0829C9.95122 8.76875 9.77561 8.76875 9.6439 8.94375C9.62648 8.9669 9.60444 8.99312 9.57932 9.02301C9.41456 9.21902 9.11707 9.57294 9.11707 10.2562C9.11707 11.0437 9.68781 11.7875 9.77561 11.875C9.77805 11.8786 9.78119 11.8834 9.78504 11.8892C9.91988 12.0929 10.917 13.5995 12.4537 14.2375C12.6985 14.3595 12.9221 14.439 13.1094 14.5056C13.1907 14.5345 13.2652 14.561 13.3317 14.5875C13.6829 14.675 14.0341 14.675 14.2976 14.6313Z" fill="currentColor"/>
</svg>
