<svg width="16" height="16" viewBox="0 0 16 16" fill="none" xmlns="http://www.w3.org/2000/svg">
<path d="M7.6521 0.896897C3.86543 1.07574 0.877218 4.20381 0.888705 7.96413C0.892203 9.10942 1.17095 10.1904 1.66268 11.1456L0.907702 14.7807C0.866862 14.9773 1.04565 15.1495 1.24258 15.1033L4.83359 14.2594C5.75618 14.7152 6.79243 14.9785 7.88915 14.9951C11.7595 15.0537 14.9867 12.0054 15.1073 8.1678C15.2366 4.05412 11.8138 0.700299 7.6521 0.896897ZM11.9369 11.8477C10.8853 12.8908 9.48702 13.4653 7.99977 13.4653C7.12893 13.4653 6.29519 13.2715 5.52163 12.8893L5.02153 12.6422L2.81988 13.1596L3.28331 10.9281L3.03694 10.4495C2.63536 9.66942 2.43174 8.82585 2.43174 7.94229C2.43174 6.46703 3.01091 5.0801 4.06257 4.03691C5.10483 3.00307 6.52589 2.41923 7.99987 2.41923C9.48712 2.41927 10.8853 2.99375 11.937 4.03687C12.9886 5.08003 13.5678 6.46696 13.5678 7.94219C13.5678 9.40428 12.9792 10.8139 11.9369 11.8477Z" fill="currentColor"/>
<path d="M11.6146 9.5063L10.1195 9.11575C9.92289 9.06441 9.71122 9.11514 9.568 9.24791L9.20238 9.58679C9.04821 9.72969 8.81428 9.7756 8.61024 9.7005C7.90298 9.44011 6.41521 8.23667 6.03527 7.63471C5.92565 7.46107 5.94378 7.24399 6.07837 7.08555L6.39757 6.70986C6.52263 6.56266 6.54902 6.36498 6.46632 6.19482L5.83729 4.90054C5.68662 4.59054 5.25118 4.5003 4.96671 4.71918C4.54943 5.04025 4.05433 5.52816 3.99414 6.06869C3.88803 7.02169 4.33728 8.22302 6.03612 9.66552C7.99875 11.332 9.57041 11.5522 10.5937 11.3267C11.1741 11.1988 11.638 10.686 11.9307 10.2662C12.1303 9.97999 11.9727 9.59986 11.6146 9.5063Z" fill="currentColor"/>
</svg>
