<svg width="132" height="12" viewBox="0 0 132 12" fill="none" xmlns="http://www.w3.org/2000/svg">
<path d="M10.8008 6.90527C10.7962 6.99642 10.7939 7.08984 10.7939 7.18555C10.7939 7.36328 10.8031 7.56836 10.8213 7.80078C10.8441 8.0332 10.8851 8.27474 10.9443 8.52539C11.0036 8.77148 11.0765 8.98568 11.1631 9.16797C11.2497 9.3457 11.3477 9.46419 11.457 9.52344L10.5752 11.1709C10.3975 11.0889 10.238 10.984 10.0967 10.8564C9.95996 10.7243 9.83691 10.5762 9.72754 10.4121C9.61816 10.248 9.52246 10.0726 9.44043 9.88574C9.36296 9.69889 9.2946 9.50749 9.23535 9.31152C8.97559 9.58952 8.6862 9.84473 8.36719 10.0771C8.04818 10.3096 7.70182 10.5124 7.32812 10.6855C6.95898 10.8542 6.56478 10.9863 6.14551 11.082C5.73079 11.1823 5.29557 11.2393 4.83984 11.2529C4.7806 11.2529 4.72363 11.2529 4.66895 11.2529C4.28613 11.2529 3.90788 11.2096 3.53418 11.123C3.16048 11.041 2.80501 10.918 2.46777 10.7539C2.13509 10.5853 1.83431 10.3893 1.56543 10.166C1.30111 9.93815 1.07552 9.69434 0.888672 9.43457C0.701823 9.1748 0.558268 8.90592 0.458008 8.62793C0.362305 8.34538 0.314453 8.06966 0.314453 7.80078C0.314453 7.35417 0.38737 6.97591 0.533203 6.66602C0.683594 6.35156 0.875 6.08952 1.10742 5.87988C1.3444 5.66569 1.60872 5.49479 1.90039 5.36719C2.19661 5.23958 2.49056 5.1416 2.78223 5.07324C3.07845 5.00488 3.35645 4.95703 3.61621 4.92969C3.88053 4.90234 4.09928 4.88184 4.27246 4.86816L4.36816 4.86133C4.64616 4.83854 4.96517 4.82031 5.3252 4.80664C5.68978 4.78841 6.07259 4.77702 6.47363 4.77246C6.87467 4.76335 7.28255 4.75879 7.69727 4.75879C8.11654 4.75879 8.51986 4.76107 8.90723 4.76562C8.90723 4.50586 8.81836 4.23698 8.64062 3.95898C8.46289 3.67643 8.21908 3.41895 7.90918 3.18652C7.59928 2.94954 7.23014 2.75586 6.80176 2.60547C6.37793 2.45052 5.91992 2.37305 5.42773 2.37305C5.1543 2.37305 4.87174 2.40039 4.58008 2.45508C4.29297 2.50977 3.99902 2.59863 3.69824 2.72168C3.40202 2.84473 3.10124 3.00423 2.7959 3.2002C2.49056 3.3916 2.1875 3.6263 1.88672 3.9043L0.683594 2.81738C1.01172 2.44824 1.37174 2.13151 1.76367 1.86719C2.16016 1.60286 2.56576 1.38639 2.98047 1.21777C3.39974 1.04915 3.81673 0.926107 4.23145 0.848633C4.65072 0.766602 5.04948 0.725586 5.42773 0.725586C6.10221 0.725586 6.70378 0.796224 7.23242 0.9375C7.76107 1.07878 8.22363 1.26562 8.62012 1.49805C9.02116 1.72591 9.3584 1.98568 9.63184 2.27734C9.90983 2.56901 10.1354 2.86523 10.3086 3.16602C10.4818 3.4668 10.6071 3.75846 10.6846 4.04102C10.762 4.32357 10.8008 4.57194 10.8008 4.78613C10.8008 4.79069 10.7962 4.79297 10.7871 4.79297C10.7826 4.79297 10.7803 4.79525 10.7803 4.7998H10.8008V6.90527ZM2.58398 8.7373C2.91667 9.03809 3.28353 9.25911 3.68457 9.40039C4.08561 9.54167 4.50033 9.6123 4.92871 9.6123C5.39355 9.6123 5.85384 9.53483 6.30957 9.37988C6.7653 9.22493 7.18229 9.00618 7.56055 8.72363C7.94336 8.43652 8.26921 8.09473 8.53809 7.69824C8.80697 7.2972 8.9847 6.85059 9.07129 6.3584C8.68392 6.35384 8.27832 6.35156 7.85449 6.35156C7.43522 6.35156 7.02279 6.35612 6.61719 6.36523C6.21159 6.36979 5.8265 6.37891 5.46191 6.39258C5.09733 6.40625 4.77832 6.42448 4.50488 6.44727L4.40234 6.4541C3.94206 6.49512 3.5638 6.54753 3.26758 6.61133C2.97135 6.67513 2.73665 6.75944 2.56348 6.86426C2.3903 6.96908 2.26953 7.09896 2.20117 7.25391C2.13281 7.4043 2.09863 7.58659 2.09863 7.80078C2.09863 7.97396 2.14193 8.13802 2.22852 8.29297C2.31966 8.44336 2.43815 8.59147 2.58398 8.7373ZM15.5449 11.0068H11.9629V0.985352H13.7949V9.35938H15.5449V11.0068ZM25.8604 8.92871C25.5322 9.34342 25.1722 9.69889 24.7803 9.99512C24.3929 10.2868 23.9919 10.526 23.5771 10.7129C23.1624 10.8997 22.7432 11.0365 22.3193 11.123C21.8955 11.2096 21.4854 11.2529 21.0889 11.2529C20.4144 11.2529 19.8128 11.1663 19.2842 10.9932C18.7555 10.82 18.2907 10.599 17.8896 10.3301C17.4886 10.0612 17.1468 9.76497 16.8643 9.44141C16.5817 9.11784 16.3493 8.80566 16.167 8.50488C15.9847 8.19954 15.8457 7.92839 15.75 7.69141C15.6543 7.45443 15.5951 7.28809 15.5723 7.19238C15.3262 7.18783 15.1576 7.18555 15.0664 7.18555C14.9753 7.18099 14.916 7.17643 14.8887 7.17188L14.9297 5.58594C14.9342 5.58594 14.9434 5.58594 14.957 5.58594C14.9753 5.58594 15.0026 5.58822 15.0391 5.59277C15.0801 5.59277 15.1348 5.59505 15.2031 5.59961C15.276 5.59961 15.3672 5.59961 15.4766 5.59961C15.5267 5.19857 15.6292 4.80208 15.7842 4.41016C15.9391 4.01823 16.1419 3.64453 16.3926 3.28906C16.6478 2.93359 16.9463 2.60319 17.2881 2.29785C17.6299 1.99251 18.0081 1.72591 18.4229 1.49805C18.8376 1.27018 19.2865 1.09017 19.7695 0.958008C20.2526 0.821289 20.763 0.746094 21.3008 0.732422C21.36 0.732422 21.4193 0.732422 21.4785 0.732422C21.8659 0.732422 22.2487 0.775716 22.627 0.862305C23.0052 0.944336 23.3675 1.06966 23.7139 1.23828C24.0602 1.40234 24.3724 1.59831 24.6504 1.82617C24.9329 2.04948 25.1722 2.29102 25.3682 2.55078C25.5641 2.81055 25.7145 3.08171 25.8193 3.36426C25.9287 3.64225 25.9834 3.91569 25.9834 4.18457C25.9834 4.62663 25.9128 5.00716 25.7715 5.32617C25.6302 5.64062 25.4456 5.90495 25.2178 6.11914C24.9945 6.33333 24.7415 6.50423 24.459 6.63184C24.1764 6.75944 23.8916 6.8597 23.6045 6.93262C23.3219 7.00098 23.0531 7.04655 22.7979 7.06934C22.5426 7.09212 22.3285 7.10807 22.1553 7.11719L21.9775 7.12402C21.6995 7.13314 21.3783 7.14453 21.0137 7.1582C20.6536 7.16732 20.2731 7.17871 19.8721 7.19238C19.471 7.2015 19.1133 7.20833 18.7988 7.21289C18.4889 7.21289 18.2337 7.21289 18.0332 7.21289C17.8327 7.21289 17.6344 7.21289 17.4385 7.21289C17.5843 7.57747 17.7939 7.90788 18.0674 8.2041C18.3454 8.50033 18.6576 8.75553 19.0039 8.96973C19.3548 9.17936 19.7262 9.34115 20.1182 9.45508C20.5101 9.56901 20.8975 9.62598 21.2803 9.62598C21.5765 9.62598 21.8727 9.5918 22.1689 9.52344C22.4697 9.45508 22.766 9.35026 23.0576 9.20898C23.3493 9.06315 23.6318 8.8763 23.9053 8.64844C24.1787 8.41602 24.4385 8.1403 24.6846 7.82129L25.8604 8.92871ZM23.707 3.24121C23.3789 2.9222 23.0166 2.68978 22.6201 2.54395C22.2282 2.39811 21.818 2.3252 21.3896 2.3252C20.9294 2.3252 20.4714 2.40495 20.0156 2.56445C19.5645 2.72396 19.1497 2.94954 18.7715 3.24121C18.3978 3.52832 18.0765 3.87467 17.8076 4.28027C17.5433 4.68132 17.3656 5.12793 17.2744 5.62012C17.5342 5.62467 17.7939 5.62695 18.0537 5.62695C18.1859 5.62695 18.3818 5.62695 18.6416 5.62695C18.9059 5.6224 19.2249 5.61784 19.5986 5.61328C19.9769 5.60417 20.3346 5.59505 20.6719 5.58594C21.0091 5.57227 21.3145 5.55632 21.5879 5.53809L21.6904 5.53125C22.1507 5.49935 22.5381 5.4515 22.8525 5.3877C23.167 5.32389 23.4199 5.23958 23.6113 5.13477C23.8027 5.02539 23.9395 4.89323 24.0215 4.73828C24.1081 4.57878 24.1514 4.39421 24.1514 4.18457C24.1514 3.84733 24.0033 3.53288 23.707 3.24121ZM31.2881 4.9707C31.68 5.0026 32.0286 5.11426 32.334 5.30566C32.6439 5.49251 32.915 5.73177 33.1475 6.02344C33.3844 6.31055 33.5895 6.63411 33.7627 6.99414C33.9359 7.34961 34.0817 7.71191 34.2002 8.08105C34.4827 8.94694 34.6719 9.91992 34.7676 11H32.9287C32.8193 10.1751 32.6553 9.43913 32.4365 8.79199C32.3454 8.51855 32.236 8.24967 32.1084 7.98535C31.9854 7.72103 31.8418 7.48633 31.6777 7.28125C31.5182 7.07161 31.3359 6.90527 31.1309 6.78223C30.9258 6.65462 30.6979 6.59082 30.4473 6.59082C30.1921 6.59082 29.9665 6.65462 29.7705 6.78223C29.5745 6.90527 29.4036 7.07161 29.2578 7.28125C29.112 7.48633 28.9867 7.72103 28.8818 7.98535C28.7816 8.24967 28.6973 8.51855 28.6289 8.79199C28.474 9.43913 28.3805 10.1751 28.3486 11H26.6328V0.978516H28.4648V6.25586C28.474 6.23307 28.4945 6.19889 28.5264 6.15332L31.9238 0.978516H33.9746L31.2881 4.9707ZM36.6201 3.30957C36.6201 3.58301 36.6908 3.81771 36.832 4.01367C36.9733 4.20964 37.1602 4.38509 37.3926 4.54004C37.625 4.69043 37.8893 4.82715 38.1855 4.9502C38.4863 5.07324 38.7894 5.20085 39.0947 5.33301C39.4046 5.46061 39.7077 5.59961 40.0039 5.75C40.3047 5.90039 40.5713 6.07812 40.8037 6.2832C41.0361 6.48828 41.223 6.72982 41.3643 7.00781C41.5055 7.28125 41.5762 7.6071 41.5762 7.98535C41.5762 8.39551 41.4987 8.79427 41.3438 9.18164C41.1888 9.56445 40.9655 9.90625 40.6738 10.207C40.3867 10.5078 40.0381 10.7493 39.6279 10.9316C39.2178 11.1139 38.7552 11.2051 38.2402 11.2051C37.8255 11.2051 37.4382 11.1504 37.0781 11.041C36.7227 10.9316 36.4014 10.7858 36.1143 10.6035C35.8271 10.4212 35.5742 10.2139 35.3555 9.98145C35.1413 9.74902 34.9658 9.50977 34.8291 9.26367L36.0596 8.06055C36.137 8.20182 36.2555 8.35905 36.415 8.53223C36.5745 8.70085 36.7523 8.86035 36.9482 9.01074C37.1488 9.16113 37.3561 9.28874 37.5703 9.39355C37.7845 9.49382 37.9827 9.54395 38.165 9.54395C38.4294 9.54395 38.6641 9.50065 38.8691 9.41406C39.0742 9.32747 39.2451 9.21126 39.3818 9.06543C39.5231 8.91504 39.6279 8.74414 39.6963 8.55273C39.7692 8.36133 39.8057 8.16309 39.8057 7.95801C39.8057 7.75749 39.735 7.58431 39.5938 7.43848C39.457 7.29264 39.2747 7.16048 39.0469 7.04199C38.819 6.9235 38.5592 6.80957 38.2676 6.7002C37.9759 6.59082 37.6774 6.47233 37.3721 6.34473C37.0713 6.21712 36.7751 6.07129 36.4834 5.90723C36.1917 5.73861 35.932 5.53809 35.7041 5.30566C35.4762 5.06868 35.2917 4.79297 35.1504 4.47852C35.0137 4.15951 34.9453 3.78581 34.9453 3.35742C34.9453 2.94727 35.041 2.58268 35.2324 2.26367C35.4284 1.94466 35.6859 1.6735 36.0049 1.4502C36.3239 1.22689 36.6908 1.05827 37.1055 0.944336C37.5202 0.825846 37.9486 0.766602 38.3906 0.766602C38.6914 0.766602 38.9945 0.816732 39.2998 0.916992C39.6097 1.0127 39.9036 1.14486 40.1816 1.31348C40.4596 1.47754 40.7126 1.67122 40.9404 1.89453C41.1729 2.11328 41.3574 2.3457 41.4941 2.5918L40.1885 3.60352C40.1064 3.46224 39.9902 3.31868 39.8398 3.17285C39.694 3.02246 39.5277 2.88802 39.3408 2.76953C39.1585 2.64648 38.9671 2.54622 38.7666 2.46875C38.5661 2.39128 38.3724 2.35254 38.1855 2.35254C37.6478 2.35254 37.2513 2.42546 36.9961 2.57129C36.7454 2.71712 36.6201 2.96322 36.6201 3.30957ZM52.5889 8.92871C52.2607 9.34342 51.9007 9.69889 51.5088 9.99512C51.1214 10.2868 50.7204 10.526 50.3057 10.7129C49.891 10.8997 49.4717 11.0365 49.0479 11.123C48.624 11.2096 48.2139 11.2529 47.8174 11.2529C47.1429 11.2529 46.5413 11.1663 46.0127 10.9932C45.484 10.82 45.0192 10.599 44.6182 10.3301C44.2171 10.0612 43.8753 9.76497 43.5928 9.44141C43.3102 9.11784 43.0778 8.80566 42.8955 8.50488C42.7132 8.19954 42.5742 7.92839 42.4785 7.69141C42.3828 7.45443 42.3236 7.28809 42.3008 7.19238C42.0547 7.18783 41.8861 7.18555 41.7949 7.18555C41.7038 7.18099 41.6445 7.17643 41.6172 7.17188L41.6582 5.58594C41.6628 5.58594 41.6719 5.58594 41.6855 5.58594C41.7038 5.58594 41.7311 5.58822 41.7676 5.59277C41.8086 5.59277 41.8633 5.59505 41.9316 5.59961C42.0046 5.59961 42.0957 5.59961 42.2051 5.59961C42.2552 5.19857 42.3577 4.80208 42.5127 4.41016C42.6676 4.01823 42.8704 3.64453 43.1211 3.28906C43.3763 2.93359 43.6748 2.60319 44.0166 2.29785C44.3584 1.99251 44.7367 1.72591 45.1514 1.49805C45.5661 1.27018 46.015 1.09017 46.498 0.958008C46.9811 0.821289 47.4915 0.746094 48.0293 0.732422C48.0885 0.732422 48.1478 0.732422 48.207 0.732422C48.5944 0.732422 48.9772 0.775716 49.3555 0.862305C49.7337 0.944336 50.096 1.06966 50.4424 1.23828C50.7887 1.40234 51.1009 1.59831 51.3789 1.82617C51.6615 2.04948 51.9007 2.29102 52.0967 2.55078C52.2926 2.81055 52.443 3.08171 52.5479 3.36426C52.6572 3.64225 52.7119 3.91569 52.7119 4.18457C52.7119 4.62663 52.6413 5.00716 52.5 5.32617C52.3587 5.64062 52.1742 5.90495 51.9463 6.11914C51.723 6.33333 51.4701 6.50423 51.1875 6.63184C50.9049 6.75944 50.6201 6.8597 50.333 6.93262C50.0505 7.00098 49.7816 7.04655 49.5264 7.06934C49.2712 7.09212 49.057 7.10807 48.8838 7.11719L48.7061 7.12402C48.4281 7.13314 48.1068 7.14453 47.7422 7.1582C47.3822 7.16732 47.0016 7.17871 46.6006 7.19238C46.1995 7.2015 45.8418 7.20833 45.5273 7.21289C45.2174 7.21289 44.9622 7.21289 44.7617 7.21289C44.5612 7.21289 44.363 7.21289 44.167 7.21289C44.3128 7.57747 44.5225 7.90788 44.7959 8.2041C45.0739 8.50033 45.3861 8.75553 45.7324 8.96973C46.0833 9.17936 46.4548 9.34115 46.8467 9.45508C47.2386 9.56901 47.626 9.62598 48.0088 9.62598C48.305 9.62598 48.6012 9.5918 48.8975 9.52344C49.1982 9.45508 49.4945 9.35026 49.7861 9.20898C50.0778 9.06315 50.3604 8.8763 50.6338 8.64844C50.9072 8.41602 51.167 8.1403 51.4131 7.82129L52.5889 8.92871ZM50.4355 3.24121C50.1074 2.9222 49.7451 2.68978 49.3486 2.54395C48.9567 2.39811 48.5465 2.3252 48.1182 2.3252C47.6579 2.3252 47.1999 2.40495 46.7441 2.56445C46.293 2.72396 45.8783 2.94954 45.5 3.24121C45.1263 3.52832 44.805 3.87467 44.5361 4.28027C44.2718 4.68132 44.0941 5.12793 44.0029 5.62012C44.2627 5.62467 44.5225 5.62695 44.7822 5.62695C44.9144 5.62695 45.1104 5.62695 45.3701 5.62695C45.6344 5.6224 45.9535 5.61784 46.3271 5.61328C46.7054 5.60417 47.0632 5.59505 47.4004 5.58594C47.7376 5.57227 48.043 5.55632 48.3164 5.53809L48.4189 5.53125C48.8792 5.49935 49.2666 5.4515 49.5811 5.3877C49.8955 5.32389 50.1484 5.23958 50.3398 5.13477C50.5312 5.02539 50.668 4.89323 50.75 4.73828C50.8366 4.57878 50.8799 4.39421 50.8799 4.18457C50.8799 3.84733 50.7318 3.53288 50.4355 3.24121ZM58.6045 7.13086C58.6045 7.95573 58.5498 8.63932 58.4404 9.18164C58.3311 9.72396 58.1693 10.1569 57.9551 10.4805C57.7454 10.7995 57.4811 11.0251 57.1621 11.1572C56.8477 11.2894 56.4831 11.3555 56.0684 11.3555C55.6947 11.3555 55.3643 11.3008 55.0771 11.1914C54.7946 11.082 54.5508 10.9385 54.3457 10.7607C54.1406 10.583 53.9697 10.3848 53.833 10.166C53.6963 9.94727 53.5869 9.72852 53.5049 9.50977C53.4229 9.29102 53.3659 9.08366 53.334 8.8877C53.3021 8.69173 53.2861 8.52995 53.2861 8.40234H54.9131C54.9131 8.91276 55.0133 9.30013 55.2139 9.56445C55.4189 9.82422 55.681 9.9541 56 9.9541C56.1823 9.9541 56.3304 9.89714 56.4443 9.7832C56.5583 9.66471 56.6471 9.49609 56.7109 9.27734C56.7793 9.05859 56.8249 8.79655 56.8477 8.49121C56.8704 8.18132 56.8818 7.83496 56.8818 7.45215V7.43848C56.7269 7.46126 56.5788 7.47949 56.4375 7.49316C56.3008 7.50684 56.1686 7.51367 56.041 7.51367C55.5033 7.51367 55.0544 7.42025 54.6943 7.2334C54.3343 7.04655 54.0449 6.80046 53.8262 6.49512C53.6074 6.18522 53.4456 5.83659 53.3408 5.44922C53.2406 5.05729 53.179 4.65625 53.1562 4.24609C53.1471 4.09115 53.1426 3.93392 53.1426 3.77441C53.1426 2.93587 53.2633 2.00391 53.5049 0.978516H55.2617C55.0384 1.9401 54.9199 2.79688 54.9062 3.54883C54.9062 3.58073 54.9062 3.61491 54.9062 3.65137C54.9062 3.93392 54.9245 4.22331 54.9609 4.51953C54.9974 4.8112 55.0703 5.0778 55.1797 5.31934C55.2936 5.55632 55.4486 5.75 55.6445 5.90039C55.8451 6.04622 56.1003 6.11914 56.4102 6.11914C56.5423 6.11914 56.6995 6.10091 56.8818 6.06445V0.978516H58.6045V7.13086ZM67.9697 4.9707C68.3617 5.0026 68.7103 5.11426 69.0156 5.30566C69.3255 5.49251 69.5967 5.73177 69.8291 6.02344C70.0661 6.31055 70.2712 6.63411 70.4443 6.99414C70.6175 7.34961 70.7633 7.71191 70.8818 8.08105C71.1644 8.94694 71.3535 9.91992 71.4492 11H69.6104C69.501 10.1751 69.3369 9.43913 69.1182 8.79199C69.027 8.51855 68.9176 8.24967 68.79 7.98535C68.667 7.72103 68.5234 7.48633 68.3594 7.28125C68.1999 7.07161 68.0176 6.90527 67.8125 6.78223C67.6074 6.65462 67.3796 6.59082 67.1289 6.59082C66.8737 6.59082 66.6481 6.65462 66.4521 6.78223C66.2562 6.90527 66.0853 7.07161 65.9395 7.28125C65.7936 7.48633 65.6683 7.72103 65.5635 7.98535C65.4632 8.24967 65.3789 8.51855 65.3105 8.79199C65.1556 9.43913 65.0622 10.1751 65.0303 11H63.3145V0.978516H65.1465V6.25586C65.1556 6.23307 65.1761 6.19889 65.208 6.15332L68.6055 0.978516H70.6562L67.9697 4.9707ZM75.6602 0.923828C76.0293 0.923828 76.3984 0.973958 76.7676 1.07422C77.1367 1.17448 77.4899 1.32259 77.8271 1.51855C78.1689 1.71452 78.4857 1.95833 78.7773 2.25C79.069 2.53711 79.3219 2.86751 79.5361 3.24121C79.7503 3.61491 79.9189 4.03418 80.042 4.49902C80.165 4.95931 80.2266 5.45833 80.2266 5.99609C80.2266 6.54297 80.165 7.04883 80.042 7.51367C79.9189 7.97852 79.7503 8.39779 79.5361 8.77148C79.3219 9.14518 79.069 9.47559 78.7773 9.7627C78.4857 10.0498 78.1689 10.2891 77.8271 10.4805C77.4899 10.6719 77.1367 10.8177 76.7676 10.918C76.3984 11.0137 76.0293 11.0615 75.6602 11.0615C75.291 11.0615 74.9196 11.0137 74.5459 10.918C74.1768 10.8177 73.8213 10.6719 73.4795 10.4805C73.1423 10.2891 72.8278 10.0498 72.5361 9.7627C72.2445 9.47559 71.9915 9.14518 71.7773 8.77148C71.5632 8.39779 71.3945 7.97852 71.2715 7.51367C71.1484 7.04883 71.0869 6.54297 71.0869 5.99609C71.0869 5.45378 71.1484 4.95247 71.2715 4.49219C71.3945 4.0319 71.5632 3.61491 71.7773 3.24121C71.9915 2.86751 72.2445 2.53711 72.5361 2.25C72.8278 1.95833 73.1423 1.71452 73.4795 1.51855C73.8213 1.32259 74.1768 1.17448 74.5459 1.07422C74.9196 0.973958 75.291 0.923828 75.6602 0.923828ZM75.6602 9.65332C76.0202 9.64876 76.362 9.56901 76.6855 9.41406C77.0091 9.25456 77.2917 9.02214 77.5332 8.7168C77.7793 8.4069 77.973 8.02637 78.1143 7.5752C78.2601 7.11947 78.333 6.5931 78.333 5.99609C78.333 5.39453 78.2601 4.86816 78.1143 4.41699C77.973 3.96126 77.7793 3.58073 77.5332 3.27539C77.2917 2.97005 77.0091 2.73991 76.6855 2.58496C76.362 2.42546 76.0202 2.34342 75.6602 2.33887C75.3001 2.34342 74.9561 2.42546 74.6279 2.58496C74.3044 2.73991 74.0195 2.97005 73.7734 3.27539C73.5273 3.58073 73.3314 3.96126 73.1855 4.41699C73.0397 4.86816 72.9668 5.39453 72.9668 5.99609C72.9668 6.5931 73.0397 7.11947 73.1855 7.5752C73.3314 8.02637 73.5273 8.4069 73.7734 8.7168C74.0195 9.02214 74.3044 9.25456 74.6279 9.41406C74.9561 9.56901 75.3001 9.64876 75.6602 9.65332ZM89.1748 0.978516V11H87.6299V5.38086L85.8115 11H84.2803L82.4619 5.38086V11H80.917V0.978516L82.7764 0.97168L85.0459 8.36133L87.3154 0.97168L89.1748 0.978516ZM100.406 6.90527C100.402 6.99642 100.399 7.08984 100.399 7.18555C100.399 7.36328 100.409 7.56836 100.427 7.80078C100.45 8.0332 100.491 8.27474 100.55 8.52539C100.609 8.77148 100.682 8.98568 100.769 9.16797C100.855 9.3457 100.953 9.46419 101.062 9.52344L100.181 11.1709C100.003 11.0889 99.8434 10.984 99.7021 10.8564C99.5654 10.7243 99.4424 10.5762 99.333 10.4121C99.2236 10.248 99.1279 10.0726 99.0459 9.88574C98.9684 9.69889 98.9001 9.50749 98.8408 9.31152C98.5811 9.58952 98.2917 9.84473 97.9727 10.0771C97.6536 10.3096 97.3073 10.5124 96.9336 10.6855C96.5645 10.8542 96.1702 10.9863 95.751 11.082C95.3363 11.1823 94.901 11.2393 94.4453 11.2529C94.3861 11.2529 94.3291 11.2529 94.2744 11.2529C93.8916 11.2529 93.5133 11.2096 93.1396 11.123C92.766 11.041 92.4105 10.918 92.0732 10.7539C91.7406 10.5853 91.4398 10.3893 91.1709 10.166C90.9066 9.93815 90.681 9.69434 90.4941 9.43457C90.3073 9.1748 90.1637 8.90592 90.0635 8.62793C89.9678 8.34538 89.9199 8.06966 89.9199 7.80078C89.9199 7.35417 89.9928 6.97591 90.1387 6.66602C90.2891 6.35156 90.4805 6.08952 90.7129 5.87988C90.9499 5.66569 91.2142 5.49479 91.5059 5.36719C91.8021 5.23958 92.096 5.1416 92.3877 5.07324C92.6839 5.00488 92.9619 4.95703 93.2217 4.92969C93.486 4.90234 93.7048 4.88184 93.8779 4.86816L93.9736 4.86133C94.2516 4.83854 94.5706 4.82031 94.9307 4.80664C95.2952 4.78841 95.6781 4.77702 96.0791 4.77246C96.4801 4.76335 96.888 4.75879 97.3027 4.75879C97.722 4.75879 98.1253 4.76107 98.5127 4.76562C98.5127 4.50586 98.4238 4.23698 98.2461 3.95898C98.0684 3.67643 97.8245 3.41895 97.5146 3.18652C97.2048 2.94954 96.8356 2.75586 96.4072 2.60547C95.9834 2.45052 95.5254 2.37305 95.0332 2.37305C94.7598 2.37305 94.4772 2.40039 94.1855 2.45508C93.8984 2.50977 93.6045 2.59863 93.3037 2.72168C93.0075 2.84473 92.7067 3.00423 92.4014 3.2002C92.096 3.3916 91.793 3.6263 91.4922 3.9043L90.2891 2.81738C90.6172 2.44824 90.9772 2.13151 91.3691 1.86719C91.7656 1.60286 92.1712 1.38639 92.5859 1.21777C93.0052 1.04915 93.4222 0.926107 93.8369 0.848633C94.2562 0.766602 94.6549 0.725586 95.0332 0.725586C95.7077 0.725586 96.3092 0.796224 96.8379 0.9375C97.3665 1.07878 97.8291 1.26562 98.2256 1.49805C98.6266 1.72591 98.9639 1.98568 99.2373 2.27734C99.5153 2.56901 99.7409 2.86523 99.9141 3.16602C100.087 3.4668 100.213 3.75846 100.29 4.04102C100.368 4.32357 100.406 4.57194 100.406 4.78613C100.406 4.79069 100.402 4.79297 100.393 4.79297C100.388 4.79297 100.386 4.79525 100.386 4.7998H100.406V6.90527ZM92.1895 8.7373C92.5221 9.03809 92.889 9.25911 93.29 9.40039C93.6911 9.54167 94.1058 9.6123 94.5342 9.6123C94.999 9.6123 95.4593 9.53483 95.915 9.37988C96.3708 9.22493 96.7878 9.00618 97.166 8.72363C97.5488 8.43652 97.8747 8.09473 98.1436 7.69824C98.4124 7.2972 98.5902 6.85059 98.6768 6.3584C98.2894 6.35384 97.8838 6.35156 97.46 6.35156C97.0407 6.35156 96.6283 6.35612 96.2227 6.36523C95.8171 6.36979 95.432 6.37891 95.0674 6.39258C94.7028 6.40625 94.3838 6.42448 94.1104 6.44727L94.0078 6.4541C93.5475 6.49512 93.1693 6.54753 92.873 6.61133C92.5768 6.67513 92.3421 6.75944 92.1689 6.86426C91.9958 6.96908 91.875 7.09896 91.8066 7.25391C91.7383 7.4043 91.7041 7.58659 91.7041 7.80078C91.7041 7.97396 91.7474 8.13802 91.834 8.29297C91.9251 8.44336 92.0436 8.59147 92.1895 8.7373ZM103.291 0.978516V3.89062C103.911 2.84701 104.667 2.05859 105.561 1.52539C106.454 0.992188 107.472 0.725586 108.616 0.725586C109.382 0.725586 110.079 0.809896 110.708 0.978516C111.341 1.14258 111.891 1.38867 112.355 1.7168C112.802 2.03125 113.146 2.40495 113.388 2.83789C113.634 3.27083 113.757 3.72656 113.757 4.20508C113.757 4.48307 113.714 4.75879 113.627 5.03223C113.54 5.30566 113.41 5.56771 113.237 5.81836C113.069 6.06445 112.857 6.2946 112.602 6.50879C112.346 6.71842 112.05 6.90072 111.713 7.05566C111.376 7.21061 110.997 7.33366 110.578 7.4248C110.163 7.51139 109.708 7.55469 109.211 7.55469C108.309 7.55469 107.484 7.43164 106.736 7.18555C106.955 7.49544 107.201 7.80078 107.475 8.10156C107.748 8.39779 108.051 8.66211 108.384 8.89453C108.721 9.12695 109.086 9.31608 109.478 9.46191C109.874 9.60319 110.3 9.67383 110.756 9.67383C110.906 9.67383 111.068 9.6556 111.241 9.61914C111.419 9.58268 111.599 9.53255 111.781 9.46875C111.968 9.40039 112.153 9.31836 112.335 9.22266C112.522 9.12695 112.7 9.02214 112.868 8.9082L113.757 10.2139C113.52 10.3779 113.274 10.5238 113.019 10.6514C112.763 10.779 112.506 10.8883 112.246 10.9795C111.991 11.0661 111.736 11.1322 111.48 11.1777C111.23 11.2279 110.988 11.2529 110.756 11.2529C110.191 11.2529 109.662 11.1755 109.17 11.0205C108.682 10.8701 108.231 10.6673 107.816 10.4121C107.402 10.1569 107.023 9.86523 106.682 9.53711C106.34 9.20898 106.03 8.86947 105.752 8.51855C105.479 8.16309 105.237 7.8099 105.027 7.45898C104.818 7.10807 104.64 6.78451 104.494 6.48828C104.485 6.47005 104.471 6.43815 104.453 6.39258L106.121 5.14844C106.941 5.69531 107.971 5.96875 109.211 5.96875C109.699 5.96875 110.125 5.91862 110.489 5.81836C110.858 5.7181 111.168 5.58594 111.419 5.42188C111.67 5.25326 111.856 5.06413 111.979 4.85449C112.107 4.6403 112.171 4.42383 112.171 4.20508C112.171 3.98633 112.107 3.77441 111.979 3.56934C111.856 3.3597 111.676 3.17057 111.439 3.00195C111.326 2.92448 111.184 2.84473 111.016 2.7627C110.852 2.68066 110.653 2.60547 110.421 2.53711C110.193 2.46875 109.929 2.41406 109.628 2.37305C109.332 2.32747 108.994 2.30469 108.616 2.30469C107.586 2.30469 106.698 2.59408 105.95 3.17285C105.203 3.74707 104.592 4.61296 104.118 5.77051C103.968 6.13509 103.842 6.4974 103.742 6.85742C103.642 7.21745 103.56 7.55469 103.496 7.86914C103.437 8.18359 103.391 8.46615 103.359 8.7168C103.327 8.96289 103.305 9.15658 103.291 9.29785V11.0068H101.582V0.978516H103.291ZM118.645 0.923828C119.014 0.923828 119.383 0.973958 119.752 1.07422C120.121 1.17448 120.474 1.32259 120.812 1.51855C121.153 1.71452 121.47 1.95833 121.762 2.25C122.053 2.53711 122.306 2.86751 122.521 3.24121C122.735 3.61491 122.903 4.03418 123.026 4.49902C123.149 4.95931 123.211 5.45833 123.211 5.99609C123.211 6.54297 123.149 7.04883 123.026 7.51367C122.903 7.97852 122.735 8.39779 122.521 8.77148C122.306 9.14518 122.053 9.47559 121.762 9.7627C121.47 10.0498 121.153 10.2891 120.812 10.4805C120.474 10.6719 120.121 10.8177 119.752 10.918C119.383 11.0137 119.014 11.0615 118.645 11.0615C118.275 11.0615 117.904 11.0137 117.53 10.918C117.161 10.8177 116.806 10.6719 116.464 10.4805C116.127 10.2891 115.812 10.0498 115.521 9.7627C115.229 9.47559 114.976 9.14518 114.762 8.77148C114.548 8.39779 114.379 7.97852 114.256 7.51367C114.133 7.04883 114.071 6.54297 114.071 5.99609C114.071 5.45378 114.133 4.95247 114.256 4.49219C114.379 4.0319 114.548 3.61491 114.762 3.24121C114.976 2.86751 115.229 2.53711 115.521 2.25C115.812 1.95833 116.127 1.71452 116.464 1.51855C116.806 1.32259 117.161 1.17448 117.53 1.07422C117.904 0.973958 118.275 0.923828 118.645 0.923828ZM118.645 9.65332C119.005 9.64876 119.346 9.56901 119.67 9.41406C119.993 9.25456 120.276 9.02214 120.518 8.7168C120.764 8.4069 120.957 8.02637 121.099 7.5752C121.244 7.11947 121.317 6.5931 121.317 5.99609C121.317 5.39453 121.244 4.86816 121.099 4.41699C120.957 3.96126 120.764 3.58073 120.518 3.27539C120.276 2.97005 119.993 2.73991 119.67 2.58496C119.346 2.42546 119.005 2.34342 118.645 2.33887C118.285 2.34342 117.94 2.42546 117.612 2.58496C117.289 2.73991 117.004 2.97005 116.758 3.27539C116.512 3.58073 116.316 3.96126 116.17 4.41699C116.024 4.86816 115.951 5.39453 115.951 5.99609C115.951 6.5931 116.024 7.11947 116.17 7.5752C116.316 8.02637 116.512 8.4069 116.758 8.7168C117.004 9.02214 117.289 9.25456 117.612 9.41406C117.94 9.56901 118.285 9.64876 118.645 9.65332ZM131.161 0.978516L128.03 11.0068H126.048L122.91 0.978516H124.831L127.039 8.04688L129.247 0.978516H131.161Z" fill="#504641"/>
</svg>
