<svg width="41" height="40" viewBox="0 0 41 40" fill="none" xmlns="http://www.w3.org/2000/svg">
<path d="M16.2917 10C16.6369 10 16.9167 9.72018 16.9167 9.375C16.9167 9.02982 16.6369 8.75 16.2917 8.75C15.9466 8.75 15.6667 9.02982 15.6667 9.375C15.6667 9.72018 15.9466 10 16.2917 10Z" fill="black"/>
<path d="M20.0417 10C20.3869 10 20.6667 9.72018 20.6667 9.375C20.6667 9.02982 20.3869 8.75 20.0417 8.75C19.6966 8.75 19.4167 9.02982 19.4167 9.375C19.4167 9.72018 19.6966 10 20.0417 10Z" fill="black"/>
<path d="M30.6667 25.625C31.0376 25.625 31.4001 25.515 31.7084 25.309C32.0168 25.103 32.2571 24.8101 32.399 24.4675C32.5409 24.1249 32.5781 23.7479 32.5057 23.3842C32.4334 23.0205 32.2548 22.6864 31.9926 22.4242C31.7303 22.162 31.3963 21.9834 31.0325 21.911C30.6688 21.8387 30.2918 21.8758 29.9492 22.0177C29.6066 22.1596 29.3138 22.4 29.1077 22.7083C28.9017 23.0166 28.7917 23.3792 28.7917 23.75C28.7923 24.2471 28.99 24.7237 29.3415 25.0752C29.693 25.4267 30.1696 25.6244 30.6667 25.625ZM30.6667 23.125C30.7904 23.125 30.9112 23.1617 31.014 23.2303C31.1168 23.299 31.1969 23.3966 31.2442 23.5108C31.2915 23.625 31.3039 23.7507 31.2797 23.8719C31.2556 23.9932 31.1961 24.1045 31.1087 24.1919C31.0213 24.2794 30.9099 24.3389 30.7887 24.363C30.6674 24.3871 30.5418 24.3747 30.4276 24.3274C30.3134 24.2801 30.2158 24.2 30.1471 24.0972C30.0784 23.9945 30.0417 23.8736 30.0417 23.75C30.0419 23.5843 30.1078 23.4254 30.225 23.3083C30.3422 23.1911 30.501 23.1252 30.6667 23.125Z" fill="black"/>
<path d="M36.9167 31.25V30C36.9164 29.6686 36.7845 29.3509 36.5502 29.1165C36.3159 28.8822 35.9982 28.7504 35.6667 28.75H35.0417V25.625H36.2917C36.6232 25.6246 36.9409 25.4928 37.1752 25.2585C37.4095 25.0241 37.5414 24.7064 37.5417 24.375V21.25C37.5414 20.9186 37.4095 20.6009 37.1752 20.3665C36.9409 20.1322 36.6232 20.0004 36.2917 20H35.0417C34.9577 20 34.8738 20.0084 34.7915 20.0252C34.5508 19.4619 34.1502 18.9816 33.6392 18.6438C33.1282 18.3061 32.5293 18.1257 31.9167 18.125H30.6353C30.718 17.719 30.6362 17.2967 30.4077 16.951C30.1792 16.6053 29.8227 16.3645 29.4167 16.2815V14.9685C29.7961 14.8911 30.1333 14.6755 30.3628 14.3636C30.5922 14.0517 30.6978 13.6658 30.6588 13.2805C30.6199 12.8953 30.4393 12.5382 30.1521 12.2785C29.8649 12.0188 29.4915 11.875 29.1042 11.875H25.9792C25.6416 11.8751 25.3132 11.9854 25.0438 12.189C25.0429 12.1519 25.0417 12.1148 25.0417 12.0776V11.396C25.2384 11.2205 25.3957 11.0054 25.5035 10.7648C25.6112 10.5242 25.6668 10.2636 25.6667 10V8.75001C25.6668 8.47568 25.6065 8.2047 25.4902 7.95625C25.3739 7.7078 25.2044 7.48796 24.9936 7.31229C24.7947 5.64145 23.9899 4.10158 22.7318 2.98432C21.4736 1.86706 19.8494 1.25 18.1667 1.25C16.4841 1.25 14.8599 1.86706 13.6017 2.98432C12.3435 4.10158 11.5388 5.64145 11.3399 7.31229C11.1291 7.48796 10.9596 7.7078 10.8433 7.95625C10.727 8.2047 10.6667 8.47568 10.6667 8.75001V10C10.6667 10.2636 10.7223 10.5242 10.83 10.7648C10.9377 11.0054 11.0951 11.2205 11.2917 11.396V12.0776C11.2927 13.0448 11.0063 13.9906 10.469 14.7949C10.2463 15.1288 10.1059 15.5107 10.0591 15.9093C10.0123 16.3079 10.0605 16.712 10.1999 17.0884C9.21717 17.5724 8.34243 18.25 7.62818 19.0805C6.91393 19.9111 6.37491 20.8774 6.04349 21.9215L3.81368 28.8972C3.57366 29.6657 3.58965 30.4914 3.85924 31.25H1.91675V32.5H4.60417C4.95409 32.8951 5.38431 33.211 5.86607 33.4266C6.34784 33.6422 6.87007 33.7524 7.39786 33.75H11.9167C12.4584 33.7506 12.9853 33.5743 13.4176 33.248C13.5987 33.4905 13.8615 33.6591 14.1574 33.7226C14.1071 33.9364 14.0817 34.1553 14.0816 34.375C14.0806 34.7475 14.1536 35.1164 14.2962 35.4604C14.4388 35.8045 14.6482 36.1169 14.9123 36.3794C15.1138 36.5809 15.2573 36.833 15.3276 37.1091C15.3978 37.3852 15.3924 37.6752 15.3117 37.9485C15.2843 38.0417 15.2789 38.14 15.2961 38.2356C15.3133 38.3313 15.3526 38.4216 15.4108 38.4994C15.469 38.5772 15.5445 38.6403 15.6314 38.6838C15.7183 38.7274 15.8141 38.75 15.9113 38.75H23.4121C23.5469 38.75 23.678 38.7064 23.786 38.6258C23.894 38.5451 23.9731 38.4317 24.0114 38.3025C24.1554 37.8135 24.1649 37.2948 24.0391 36.8008C23.9132 36.3069 23.6566 35.856 23.2962 35.4956C23.0719 35.2717 22.92 34.9856 22.8601 34.6744C22.8002 34.3632 22.8351 34.0412 22.9603 33.75H35.6667C35.9982 33.7496 36.3159 33.6178 36.5502 33.3835C36.7845 33.1491 36.9164 32.8314 36.9167 32.5H39.4167V31.25H36.9167ZM36.2917 21.25V24.375H35.0417V21.25H36.2917ZM33.7917 21.25V28.75H27.5417V23.75C27.5417 23.6679 27.5256 23.5867 27.4942 23.5108C27.4628 23.435 27.4167 23.3661 27.3587 23.3081C27.3007 23.25 27.2318 23.204 27.1559 23.1726C27.0801 23.1412 26.9988 23.125 26.9167 23.125H20.2839L20.6347 22.0727L19.4488 21.6774L18.4838 24.5726C18.4424 24.6971 18.3628 24.8054 18.2564 24.8822C18.1499 24.9589 18.022 25.0001 17.8908 25H16.2917C16.126 24.9998 15.9672 24.9339 15.85 24.8167C15.7328 24.6996 15.6669 24.5407 15.6667 24.375V21.25C15.6673 20.7529 15.865 20.2763 16.2165 19.9248C16.568 19.5733 17.0446 19.3756 17.5417 19.375H31.9167C32.4139 19.3756 32.8904 19.5733 33.242 19.9248C33.5935 20.2763 33.7912 20.7529 33.7917 21.25ZM22.9606 28.75C22.9359 28.6927 22.9146 28.634 22.897 28.5742C22.859 28.4445 22.78 28.3307 22.6719 28.2497C22.5637 28.1688 22.4323 28.125 22.2972 28.125H17.5417V26.25H17.8908C18.2844 26.2504 18.6681 26.1267 18.9874 25.8965C19.3068 25.6664 19.5454 25.3415 19.6696 24.9679L19.8672 24.375H26.2917V28.75H22.9606ZM13.1667 10V10.625H12.5417C12.376 10.6248 12.2172 10.5589 12.1 10.4417C11.9828 10.3246 11.9169 10.1657 11.9167 10V8.75001C11.9167 8.58425 11.9826 8.42528 12.0998 8.30807C12.217 8.19086 12.376 8.12501 12.5417 8.12501C12.7075 8.12501 12.8665 8.19086 12.9837 8.30807C13.1009 8.42528 13.1667 8.58425 13.1667 8.75001C13.1667 8.91577 13.2326 9.07474 13.3498 9.19195C13.467 9.30916 13.626 9.37501 13.7917 9.37501C13.9575 9.37501 14.1165 9.30916 14.2337 9.19195C14.3509 9.07474 14.4167 8.91577 14.4167 8.75001V8.43232C14.4168 8.35085 14.4492 8.27274 14.5069 8.21512C14.5645 8.15751 14.6426 8.12511 14.7241 8.12501C15.3116 8.12716 15.8823 7.92901 16.3421 7.56325C16.8018 7.19748 17.1232 6.68594 17.2532 6.11299C17.3009 5.90642 17.4172 5.7221 17.5831 5.59012C17.749 5.45814 17.9547 5.38629 18.1667 5.38629C18.3787 5.38629 18.5845 5.45814 18.7504 5.59012C18.9163 5.7221 19.0326 5.90642 19.0803 6.11299C19.2103 6.68594 19.5317 7.19748 19.9914 7.56325C20.4512 7.92901 21.0219 8.12716 21.6094 8.12501C21.6909 8.12511 21.769 8.15751 21.8266 8.21512C21.8842 8.27274 21.9167 8.35085 21.9167 8.43232V8.75001C21.9167 8.91577 21.9826 9.07474 22.0998 9.19195C22.217 9.30916 22.376 9.37501 22.5417 9.37501C22.7075 9.37501 22.8665 9.30916 22.9837 9.19195C23.1009 9.07474 23.1667 8.91577 23.1667 8.75001C23.1667 8.58425 23.2326 8.42528 23.3498 8.30807C23.467 8.19086 23.626 8.12501 23.7917 8.12501C23.9575 8.12501 24.1165 8.19086 24.2337 8.30807C24.3509 8.42528 24.4167 8.58425 24.4167 8.75001V10C24.4166 10.1657 24.3506 10.3246 24.2335 10.4417C24.1163 10.5589 23.9575 10.6248 23.7917 10.625H23.1667V10H21.9167V10.625C21.9167 11.6196 21.5217 12.5734 20.8184 13.2767C20.1151 13.9799 19.1613 14.375 18.1667 14.375C17.1722 14.375 16.2184 13.9799 15.5151 13.2767C14.8118 12.5734 14.4167 11.6196 14.4167 10.625V10H13.1667ZM17.2351 15.5366C17.8464 15.6537 18.4743 15.6545 19.0859 15.5389C19.4096 16.1327 19.8874 16.6283 20.4691 16.9733C20.2008 17.3314 19.8527 17.6219 19.4524 17.8218C19.0521 18.0218 18.6107 18.1256 18.1633 18.125C17.7159 18.1245 17.2748 18.0196 16.875 17.8186C16.4752 17.6177 16.1278 17.3263 15.8603 16.9676C16.4385 16.6223 16.9133 16.1281 17.2351 15.5366ZM24.4482 18.125H21.1264C21.3025 17.9438 21.4617 17.7468 21.6019 17.5366L21.6719 17.4316C21.9059 17.477 22.1437 17.4999 22.3821 17.5H22.5093C23.1554 17.4999 23.7982 17.5908 24.4189 17.7699C24.4185 17.7842 24.4167 17.7982 24.4167 17.8125C24.4167 17.9175 24.4273 18.0222 24.4482 18.125ZM25.9792 18.125C25.8964 18.125 25.8169 18.0921 25.7583 18.0335C25.6997 17.9749 25.6667 17.8954 25.6667 17.8125C25.6667 17.7296 25.6997 17.6501 25.7583 17.5915C25.8169 17.5329 25.8964 17.5 25.9792 17.5H29.1042C29.1871 17.5 29.2666 17.5329 29.3252 17.5915C29.3838 17.6501 29.4167 17.7296 29.4167 17.8125C29.4167 17.8954 29.3838 17.9749 29.3252 18.0335C29.2666 18.0921 29.1871 18.125 29.1042 18.125H25.9792ZM26.9167 16.25V15H28.1667V16.25H26.9167ZM25.9792 13.125H29.1042C29.1871 13.125 29.2666 13.1579 29.3252 13.2165C29.3838 13.2751 29.4167 13.3546 29.4167 13.4375C29.4167 13.5204 29.3838 13.5999 29.3252 13.6585C29.2666 13.7171 29.1871 13.75 29.1042 13.75H25.9792C25.8964 13.75 25.8169 13.7171 25.7583 13.6585C25.6997 13.5999 25.6667 13.5204 25.6667 13.4375C25.6667 13.3546 25.6997 13.2751 25.7583 13.2165C25.8169 13.1579 25.8964 13.125 25.9792 13.125ZM24.8244 15.4883C24.9664 15.7007 25.042 15.9505 25.0417 16.206H25.6667V16.2815C25.4062 16.3351 25.1638 16.4546 24.9625 16.6285C24.169 16.3774 23.3416 16.2497 22.5093 16.25H22.3821C21.9721 16.2492 21.5685 16.1478 21.2067 15.9548C20.8449 15.7618 20.5359 15.483 20.3069 15.1428C20.9683 14.8281 21.5528 14.3725 22.0195 13.808C22.4862 13.2435 22.8238 12.5838 23.0085 11.875H23.7917V12.0776C23.7906 13.2917 24.15 14.4787 24.8244 15.4883ZM18.1667 2.50001C19.4412 2.50453 20.6768 2.93978 21.6727 3.73508C22.6686 4.53037 23.3664 5.639 23.6528 6.88091C23.2854 6.9077 22.9342 7.04264 22.6434 7.26873C22.3589 7.01486 21.9908 6.8747 21.6094 6.87501C21.3048 6.87612 21.009 6.7734 20.7706 6.58377C20.5322 6.39415 20.3656 6.12896 20.2982 5.83192C20.187 5.34993 19.9157 4.91986 19.5286 4.6119C19.1415 4.30395 18.6614 4.13629 18.1667 4.13629C17.6721 4.13629 17.192 4.30395 16.8049 4.6119C16.4178 4.91986 16.1465 5.34993 16.0353 5.83192C15.9679 6.12896 15.8013 6.39415 15.5629 6.58377C15.3245 6.7734 15.0286 6.87612 14.7241 6.87501C14.3427 6.8747 13.9746 7.01486 13.6901 7.26873C13.3993 7.04264 13.0481 6.9077 12.6807 6.88091C12.9671 5.639 13.6649 4.53037 14.6608 3.73508C15.6567 2.93978 16.8923 2.50453 18.1667 2.50001ZM11.2917 16.206C11.2915 15.9505 11.3671 15.7007 11.5091 15.4883C12.1835 14.4787 12.5429 13.2917 12.5417 12.0776V11.875H13.325C13.5092 12.582 13.8455 13.2402 14.3103 13.8038C14.7751 14.3674 15.3574 14.8227 16.0163 15.1382C15.7875 15.4796 15.4783 15.7596 15.1158 15.9535C14.7534 16.1474 14.3488 16.2492 13.9378 16.25H13.8106C12.9796 16.2498 12.1535 16.376 11.3605 16.6243C11.3147 16.4896 11.2915 16.3483 11.2917 16.206ZM13.8106 17.5H13.9378C14.1803 17.5 14.4222 17.4764 14.6602 17.4294L14.7317 17.5366C15.0213 17.9711 15.3908 18.3468 15.8205 18.6436C15.3892 18.9281 15.0353 19.3151 14.7903 19.77C14.5453 20.2249 14.417 20.7334 14.4167 21.25V24.375C14.4173 24.8721 14.615 25.3487 14.9665 25.7002C15.318 26.0517 15.7946 26.2495 16.2917 26.25V28.125H14.7972C14.7131 28.125 14.6299 28.1419 14.5525 28.1748C14.4751 28.2078 14.4051 28.256 14.3468 28.3166C14.2885 28.3773 14.2431 28.4491 14.2133 28.5277C14.1834 28.6063 14.1697 28.6902 14.1731 28.7742C13.871 28.835 13.602 29.0051 13.4176 29.252C12.9853 28.9257 12.4584 28.7495 11.9167 28.75H10.6667V24.375H9.41675V25.4214L6.50313 24.589L7.23413 22.3021C7.6767 20.9061 8.5531 19.6876 9.73587 18.824C10.9186 17.9603 12.3461 17.4965 13.8106 17.5ZM11.9167 32.5H7.39786C7.00722 32.5 6.62201 32.4085 6.27313 32.2327C5.92426 32.057 5.62142 31.8019 5.38891 31.488C5.1564 31.1741 5.00069 30.81 4.93426 30.4251C4.86783 30.0401 4.89253 29.645 5.00639 29.2713L6.12233 25.7802L9.41675 26.7215V28.75H6.29175V30H11.9167C12.2483 30 12.5662 30.1317 12.8006 30.3661C13.0351 30.6005 13.1667 30.9185 13.1667 31.25C13.1667 31.5815 13.0351 31.8995 12.8006 32.1339C12.5662 32.3683 12.2483 32.5 11.9167 32.5ZM14.4167 32.5V30H14.7908C14.8299 30.0444 14.8704 30.0875 14.9123 30.1294C15.0596 30.2765 15.1764 30.4512 15.2562 30.6435C15.3359 30.8358 15.3769 31.0419 15.3769 31.25C15.3769 31.4582 15.3359 31.6643 15.2562 31.8565C15.1764 32.0488 15.0596 32.2235 14.9123 32.3706C14.8704 32.4125 14.8304 32.456 14.7914 32.5H14.4167ZM15.7962 35.4956C15.6489 35.3485 15.5321 35.1738 15.4523 34.9815C15.3726 34.7893 15.3316 34.5832 15.3316 34.375C15.3316 34.1669 15.3726 33.9608 15.4523 33.7685C15.5321 33.5762 15.6489 33.4015 15.7962 33.2544C16.3063 32.7447 16.6029 32.0596 16.6255 31.3388C16.6481 30.618 16.3951 29.9157 15.9179 29.375H16.8736C17.0107 29.6543 17.1927 29.9092 17.4123 30.1294C17.5596 30.2765 17.6764 30.4512 17.7562 30.6435C17.8359 30.8358 17.8769 31.0419 17.8769 31.25C17.8769 31.4582 17.8359 31.6643 17.7562 31.8565C17.6764 32.0488 17.5596 32.2235 17.4123 32.3706C17.149 32.6337 16.94 32.9462 16.7975 33.2901C16.655 33.6341 16.5816 34.0027 16.5816 34.375C16.5816 34.7473 16.655 35.116 16.7975 35.4599C16.94 35.8038 17.149 36.1163 17.4123 36.3794C17.5594 36.5266 17.6761 36.7013 17.7557 36.8936C17.8353 37.0859 17.8762 37.2919 17.8762 37.5H16.6266C16.6267 37.1277 16.5533 36.7591 16.4109 36.4152C16.2684 36.0712 16.0595 35.7587 15.7962 35.4956ZM22.8769 37.5H19.1258C19.1259 37.1278 19.0527 36.7592 18.9104 36.4153C18.7681 36.0713 18.5593 35.7588 18.2962 35.4956C18.1489 35.3485 18.0321 35.1738 17.9523 34.9815C17.8726 34.7893 17.8316 34.5832 17.8316 34.375C17.8316 34.1669 17.8726 33.9608 17.9523 33.7685C18.0321 33.5762 18.1489 33.4015 18.2962 33.2544C18.8065 32.7447 19.1031 32.0596 19.1255 31.3387C19.148 30.6178 18.8946 29.9155 18.4171 29.375H21.8725C22.0099 29.6544 22.1923 29.9092 22.4123 30.1294C22.5596 30.2765 22.6764 30.4512 22.7562 30.6435C22.8359 30.8358 22.8769 31.0419 22.8769 31.25C22.8769 31.4582 22.8359 31.6643 22.7562 31.8565C22.6764 32.0488 22.5596 32.2235 22.4123 32.3706C22.149 32.6337 21.94 32.9462 21.7975 33.2901C21.655 33.6341 21.5816 34.0027 21.5816 34.375C21.5816 34.7473 21.655 35.116 21.7975 35.4599C21.94 35.8038 22.149 36.1163 22.4123 36.3794C22.56 36.5262 22.6771 36.7008 22.7569 36.8932C22.8366 37.0855 22.8774 37.2918 22.8769 37.5ZM35.6667 32.5H23.837C24.0277 32.1109 24.1269 31.6833 24.1269 31.25C24.1269 30.8167 24.0277 30.3891 23.837 30H35.6667V32.5Z" fill="black"/>
</svg>
