<svg width="41" height="40" viewBox="0 0 41 40" fill="none" xmlns="http://www.w3.org/2000/svg">
<path d="M35.2371 10.7681L33.1618 10.0762L32.9459 9.53641C32.8537 9.30393 32.6937 9.10459 32.4866 8.96437C32.2796 8.82415 32.0351 8.74954 31.785 8.75028H31.4463L31.1765 7.66996C31.0752 7.2642 30.8411 6.904 30.5115 6.64671C30.1818 6.38943 29.7755 6.24988 29.3573 6.25028H29.0833V4.88511C29.5003 4.73769 29.8518 4.44759 30.0756 4.06607C30.2994 3.68456 30.3812 3.2362 30.3064 2.80025C30.2316 2.36429 30.0051 1.96881 29.6669 1.6837C29.3288 1.39858 28.9007 1.2422 28.4584 1.24219C28.016 1.24217 27.588 1.39853 27.2498 1.68362C26.9116 1.96871 26.6851 2.36418 26.6103 2.80013C26.5354 3.23609 26.6172 3.68445 26.841 4.06597C27.0648 4.4475 27.4162 4.73763 27.8333 4.88508V6.25028H27.5592C27.1409 6.24989 26.7346 6.38952 26.4049 6.64693C26.0752 6.90433 25.8411 7.26469 25.7401 7.67057L25.4702 8.75028H25.1315C24.8815 8.74951 24.637 8.8241 24.43 8.96433C24.223 9.10456 24.063 9.30392 23.9709 9.53641L23.755 10.0762L21.6794 10.7681C20.5588 11.1404 19.5841 11.8563 18.8936 12.8141C18.2032 13.772 17.8322 14.923 17.8333 16.1038V16.8753C17.8338 17.3724 18.0315 17.849 18.383 18.2005C18.7345 18.552 19.2111 18.7497 19.7083 18.7503H21.5833V19.7366C21.5823 20.8475 21.9112 21.9337 22.5284 22.8573L22.6724 23.0728C23.0807 23.6824 23.3285 24.3852 23.3928 25.116C23.4572 25.8469 23.336 26.5822 23.0405 27.2537L20.5811 32.875L21.7261 33.3755L24.1854 27.7542C24.5654 26.8908 24.7213 25.9454 24.6386 25.0058C24.5558 24.0661 24.2372 23.1625 23.7121 22.3788L23.5681 22.1634C23.0882 21.4451 22.8324 20.6005 22.8333 19.7366V18.273C22.832 16.6032 23.1505 14.9487 23.7717 13.3987L25.1315 10.0003H31.7853L33.1445 13.3987C33.7659 14.9486 34.0846 16.6032 34.0833 18.273V19.7366C34.0841 20.6002 33.8285 21.4447 33.3487 22.1628L33.204 22.3795C32.6791 23.1631 32.3605 24.0666 32.2778 25.0061C32.1951 25.9457 32.351 26.8909 32.731 27.7542L35.4868 34.053C35.7985 34.7638 35.9591 35.5316 35.9583 36.3077V38.7503H37.2083V36.3077C37.2095 35.3592 37.0132 34.4209 36.6318 33.5525L33.876 27.2537C33.5805 26.5823 33.4593 25.8471 33.5236 25.1164C33.5879 24.3856 33.8356 23.6829 34.2438 23.0734L34.3884 22.8567C35.0054 21.9332 35.3343 20.8473 35.3333 19.7366V18.7503H37.2083C37.7054 18.7497 38.182 18.552 38.5335 18.2005C38.885 17.849 39.0827 17.3724 39.0833 16.8753V16.1038C39.0843 14.923 38.7133 13.772 38.0229 12.8141C37.3324 11.8563 36.3577 11.1404 35.2371 10.7681ZM28.4583 2.50028C28.5819 2.50028 28.7027 2.53694 28.8055 2.60562C28.9083 2.67429 28.9884 2.7719 29.0357 2.88611C29.083 3.00031 29.0954 3.12598 29.0712 3.24721C29.0471 3.36845 28.9876 3.47982 28.9002 3.56722C28.8128 3.65463 28.7014 3.71416 28.5802 3.73827C28.4589 3.76239 28.3333 3.75001 28.2191 3.70271C28.1049 3.6554 28.0073 3.5753 27.9386 3.47251C27.8699 3.36973 27.8333 3.2489 27.8333 3.12528C27.8334 2.95957 27.8993 2.8007 28.0165 2.68352C28.1337 2.56635 28.2925 2.50045 28.4583 2.50028ZM22.6111 12.9349C22.0326 14.392 21.6977 15.9344 21.6198 17.5003H19.7083C19.5425 17.5001 19.3837 17.4342 19.2665 17.317C19.1493 17.1999 19.0834 17.041 19.0833 16.8753V16.1038C19.0825 15.1854 19.3711 14.29 19.9081 13.545C20.4452 12.7999 21.2033 12.243 22.0749 11.9534L23.1468 11.596L22.6111 12.9349ZM26.9528 7.97391C26.9865 7.83857 27.0644 7.7184 27.1744 7.63255C27.2843 7.54671 27.4197 7.50014 27.5592 7.50028H29.3573C29.4967 7.50013 29.6321 7.54662 29.742 7.63234C29.8519 7.71806 29.9299 7.83809 29.9637 7.97331L30.1579 8.75028H26.7587L26.9528 7.97391ZM37.8333 16.8753C37.8331 17.041 37.7672 17.1999 37.65 17.317C37.5328 17.4342 37.374 17.5001 37.2083 17.5003H35.2967C35.2188 15.9344 34.8838 14.392 34.3051 12.9349L33.7697 11.596L34.8416 11.9534C35.7132 12.243 36.4713 12.7999 37.0084 13.545C37.5454 14.29 37.834 15.1854 37.8333 16.1038V16.8753Z" fill="black"/>
<path d="M17.8333 33.75H10.3333V28.125H12.8964C13.0201 28.7249 13.3168 29.2753 13.7498 29.7084C14.1829 30.1415 14.7334 30.4382 15.3333 30.5618V32.5H16.5833V30.5618C17.2885 30.4169 17.9223 30.0332 18.3777 29.4754C18.8331 28.9177 19.0823 28.22 19.0833 27.5V21.875C19.0827 21.3779 18.885 20.9013 18.5335 20.5498C18.182 20.1983 17.7054 20.0005 17.2083 20H14.7083C14.2111 20.0005 13.7345 20.1983 13.383 20.5498C13.0315 20.9013 12.8338 21.3779 12.8333 21.875H9.08325V19.375H7.83325V21.875H5.33325V19.375H4.08325V21.875H3.45825C2.96114 21.8755 2.48454 22.0733 2.13303 22.4248C1.78151 22.7763 1.58379 23.2529 1.58325 23.75V26.25C1.58379 26.7471 1.78151 27.2237 2.13303 27.5752C2.48454 27.9267 2.96114 28.1245 3.45825 28.125V33.75C2.96114 33.7505 2.48454 33.9483 2.13303 34.2998C1.78151 34.6513 1.58379 35.1279 1.58325 35.625V36.875C1.58379 37.3721 1.78151 37.8487 2.13303 38.2002C2.48454 38.5517 2.96114 38.7495 3.45825 38.75H17.8333C18.3304 38.7495 18.807 38.5517 19.1585 38.2002C19.51 37.8487 19.7077 37.3721 19.7083 36.875V35.625C19.7077 35.1279 19.51 34.6513 19.1585 34.2998C18.807 33.9483 18.3304 33.7505 17.8333 33.75ZM14.7083 21.25H17.2083C17.374 21.2502 17.5328 21.3161 17.65 21.4332C17.7672 21.5504 17.8331 21.7093 17.8333 21.875V27.5C17.8333 27.9973 17.6357 28.4742 17.2841 28.8258C16.9324 29.1775 16.4555 29.375 15.9583 29.375C15.461 29.375 14.9841 29.1775 14.6324 28.8258C14.2808 28.4742 14.0833 27.9973 14.0833 27.5V21.875C14.0834 21.7093 14.1493 21.5504 14.2665 21.4332C14.3837 21.3161 14.5425 21.2502 14.7083 21.25ZM2.83325 26.25V23.75C2.83342 23.5843 2.89932 23.4254 3.01649 23.3082C3.13367 23.1911 3.29254 23.1252 3.45825 23.125H12.8333V26.875H3.45825C3.29254 26.8748 3.13367 26.8089 3.01649 26.6918C2.89932 26.5746 2.83342 26.4157 2.83325 26.25ZM4.70825 28.125H9.08325V33.75H4.70825V28.125ZM18.4583 36.875C18.4581 37.0407 18.3922 37.1996 18.275 37.3168C18.1578 37.4339 17.999 37.4998 17.8333 37.5H3.45825C3.29254 37.4998 3.13367 37.4339 3.01649 37.3168C2.89932 37.1996 2.83342 37.0407 2.83325 36.875V35.625C2.83342 35.4593 2.89932 35.3004 3.01649 35.1832C3.13367 35.0661 3.29254 35.0002 3.45825 35H17.8333C17.999 35.0002 18.1578 35.0661 18.275 35.1832C18.3922 35.3004 18.4581 35.4593 18.4583 35.625V36.875Z" fill="black"/>
</svg>
