<svg width="40" height="40" viewBox="0 0 40 40" fill="none" xmlns="http://www.w3.org/2000/svg">
<g clip-path="url(#clip0_650_13156)">
<mask id="mask0_650_13156" style="mask-type:luminance" maskUnits="userSpaceOnUse" x="0" y="0" width="40" height="40">
<path d="M0 3.8147e-06H40V40H0V3.8147e-06Z" fill="white"/>
</mask>
<g mask="url(#mask0_650_13156)">
<path d="M21.2831 38.097H19.1075M20.1903 36.7798L18.8731 38.097L20.1903 39.4141M37.0041 35.4134H39.1797M38.0969 36.7305L39.4141 35.4134L38.0969 34.0963M36.1237 10.8822H33.9481M35.0309 9.56508L33.7137 10.8822L35.0309 12.1993M0.585938 18.7675H2.76156M1.67875 20.0846L2.99594 18.7675L1.67875 17.4503M10.6495 12.2086V9.74375C7.89766 9.74375 6.33172 8.80977 5.62172 8.22594C5.29313 7.95578 4.84172 7.88953 4.44555 8.04453L3.39602 8.45516C3.09602 8.5725 2.94711 8.90977 3.06234 9.21055C3.66313 10.7777 5.33969 16.8827 5.33969 18.7675C5.33969 19.7058 3.93469 21.9227 3.33203 24.547M3.06266 26.7702C3.06266 29.6528 4.37328 36.2419 4.86094 38.0127C4.97336 38.4209 5.29703 38.7359 5.70797 38.8379C6.61688 39.0634 8.39305 39.4141 10.6495 39.4141C12.9059 39.4141 14.682 39.0634 15.5911 38.8379C16.002 38.7359 16.3256 38.4209 16.438 38.0127C16.9258 36.2419 18.2363 29.6528 18.2363 26.7702C18.2363 23.2286 15.9593 19.962 15.9593 18.7675C15.9593 16.8827 17.6358 10.7777 18.2366 9.21055C18.3519 8.90977 18.203 8.5725 17.903 8.45516L16.8535 8.04453C16.4573 7.88953 16.0059 7.95578 15.6772 8.22594C15.1927 8.6243 14.3096 9.18578 12.9231 9.50227M10.6495 20.8023C9.36523 21.9632 8.20742 23.5024 8.20742 25.2341H13.0916C13.0916 23.5024 11.9337 21.9632 10.6495 20.8023ZM10.6495 20.8023C11.9337 19.6416 13.0916 18.1023 13.0916 16.3706H8.20742C8.20742 18.1023 9.36523 19.6416 10.6495 20.8023ZM31.2137 10.8822H25.9992M23.6555 10.8822H22.2573M26.7627 5.92235C27.7905 4.45594 28.7008 2.80141 29.4052 0.962426C29.5805 0.504457 30.2069 0.451722 30.4566 0.873832L31.9965 3.47813C32.9572 5.10274 33.0862 6.35735 32.4352 7.93578C31.9159 9.19485 31.37 10.5884 31.37 10.8822M31.37 10.8822C31.37 11.4259 35.6728 17.8573 39.3641 30.1395C39.5555 30.7765 39.1794 31.4446 38.5357 31.6123C37.6207 31.8508 36.1968 32.178 34.3737 32.459M31.37 10.8822C28.5621 8.64422 25.7355 5.32164 24.0659 0.962426C23.8905 0.504457 23.2641 0.451722 23.0145 0.873832L21.4745 3.47813C20.5138 5.10274 20.3848 6.35735 21.0357 7.93578C21.555 9.19485 22.101 10.5884 22.101 10.8822C22.101 11.2819 19.7763 14.8625 17.0785 21.6093M32.0571 32.7595C30.4682 32.9277 28.6789 33.0402 26.7355 33.0402C23.0785 33.0402 19.9673 32.6418 17.7102 32.2239M26.7355 14.8931L23.2087 21.9468H30.2623L26.7355 14.8931Z" stroke="black" stroke-width="1.3" stroke-miterlimit="10" stroke-linecap="round" stroke-linejoin="round"/>
</g>
</g>
<defs>
<clipPath id="clip0_650_13156">
<rect width="40" height="40" fill="white"/>
</clipPath>
</defs>
</svg>
