<svg width="47" height="59" viewBox="0 0 47 59" fill="none" xmlns="http://www.w3.org/2000/svg">
<g id="shleyf">
<path id="Vector" d="M19.1845 3.0521C18.4255 2.45122 17.0984 1.7413 15.6333 2.4721C14.9778 2.79922 14.6604 3.56482 14.9042 4.26082C15.3527 5.5461 16.3256 7.80578 16.5211 9.29986C16.5464 9.48778 16.5349 9.6757 16.4889 9.85898C16.3141 10.5573 15.5758 12.5084 15.0606 13.9375C14.4212 15.71 13.5426 19.9835 14.4212 23.6908C15.2998 27.3982 15.9392 29.5349 14.6604 35.7409C13.86 39.6199 13.0366 49.6563 12.8043 53.9158C12.7491 54.925 13.4023 55.8321 14.3706 56.0966C16.4268 56.6603 20.1597 57.3517 23.9731 56.3982C32.1404 54.3589 30.7604 57.2009 44.404 56.8367C44.404 56.8367 37.1751 54.396 31.8 49.5217C27.8785 45.9651 25.4451 37.6642 25.0472 35.7386C23.7684 29.5326 24.4078 27.3959 25.2864 23.6885C26.165 19.9811 25.2864 15.7077 24.647 13.9352C24.1318 12.5038 23.3935 10.555 23.2187 9.85666C23.1727 9.67338 23.1612 9.48546 23.1865 9.29754C23.382 7.80346 24.3549 5.54146 24.8034 4.2585C25.0472 3.5625 24.7298 2.7969 24.0743 2.46978C22.6092 1.73898 21.2844 2.4489 20.5231 3.04978C20.1321 3.36298 19.5801 3.36298 19.1845 3.0521Z" stroke="black" stroke-width="1.2" stroke-miterlimit="10" stroke-linejoin="round"/>
<path id="Vector_2" d="M24.3342 30.2861C24.3342 30.2861 24.0881 42.893 27.2391 51.2729" stroke="black" stroke-width="1.2" stroke-miterlimit="10" stroke-linecap="round" stroke-linejoin="round"/>
<path id="Vector_3" d="M16.5211 9.53613C18.8717 10.0628 20.8382 10.0628 23.1888 9.53613" stroke="black" stroke-width="1.2" stroke-miterlimit="10" stroke-linejoin="round"/>
</g>
</svg>
