<svg width="47" height="58" viewBox="0 0 47 58" fill="none" xmlns="http://www.w3.org/2000/svg">
<g id="a-silhouette">
<path id="Vector" d="M23.2499 12.382C22.2913 12.3479 21.3416 12.1876 20.4255 11.9055C20.4255 9.72124 19.3399 6.36964 18.8155 4.88308C18.7217 4.61746 18.6845 4.33543 18.7062 4.05482C18.728 3.77422 18.8083 3.50114 18.942 3.25288C19.161 2.84418 19.4265 2.46169 19.7332 2.11288C19.7734 2.06649 19.8226 2.02858 19.8779 2.00142C19.9332 1.97426 19.9934 1.9584 20.055 1.95478C20.1166 1.95117 20.1783 1.95987 20.2364 1.98037C20.2945 2.00087 20.3479 2.03275 20.3933 2.07412C21.1449 2.73506 21.941 3.34447 22.7761 3.89812C22.9169 3.98954 23.0816 4.03823 23.2499 4.03823C23.4183 4.03823 23.5829 3.98954 23.7237 3.89812C24.5589 3.34447 25.355 2.73506 26.1065 2.07412C26.1516 2.03284 26.2046 2.00092 26.2623 1.98024C26.3201 1.95957 26.3814 1.95056 26.4427 1.95375C26.504 1.95694 26.564 1.97226 26.6193 1.9988C26.6745 2.02535 26.7238 2.06259 26.7643 2.10832C27.0711 2.45713 27.3366 2.83962 27.5555 3.24832C27.6893 3.49658 27.7695 3.76966 27.7913 4.05026C27.8131 4.33087 27.7759 4.6129 27.682 4.87852C27.1599 6.36508 26.072 9.71668 26.072 11.9009C25.157 12.1844 24.208 12.3462 23.2499 12.382Z" stroke="black" stroke-width="1.2" stroke-linejoin="round"/>
<path id="Vector_2" d="M20.4256 11.9053C20.4256 11.9053 11.8719 31.0573 5.21798 50.6379C5.08715 51.0246 5.10494 51.4455 5.26793 51.82C5.43092 52.1945 5.72764 52.4962 6.10118 52.6671C8.41498 53.7296 13.8545 55.6197 23.25 55.6197C32.6455 55.6197 38.085 53.7296 40.3988 52.6671C40.7723 52.4962 41.069 52.1945 41.232 51.82C41.395 51.4455 41.4128 51.0246 41.282 50.6379C34.6281 31.0596 26.0744 11.9053 26.0744 11.9053" stroke="black" stroke-width="1.2" stroke-linejoin="round"/>
</g>
</svg>
