<svg width="47" height="59" viewBox="0 0 47 59" fill="none" xmlns="http://www.w3.org/2000/svg">
<g id="lush">
<path id="Vector" d="M28.0486 13.749C28.0486 13.749 42.4881 21.1568 42.1799 52.4745C42.173 53.2215 41.6899 53.8804 40.9815 54.1031C38.3158 54.9429 31.3882 56.8245 22.9334 56.8245H24.5664C16.1116 56.8245 9.18405 54.9406 6.51835 54.1031C5.80995 53.8804 5.32695 53.2215 5.32005 52.4745C5.01185 21.1545 19.4512 13.749 19.4512 13.749" stroke="black" stroke-width="1.2" stroke-miterlimit="10" stroke-linejoin="round"/>
<path id="Vector_2" d="M24.2492 16.1667C25.6867 14.2458 28.0465 13.7493 28.0465 13.7493C28.4099 10.2832 29.1022 8.08386 29.5576 6.94474C29.829 6.26034 29.8911 5.5133 29.7324 4.7941C29.6036 4.2141 29.3368 3.67586 28.955 3.22346L28.2811 2.4277C28.1109 2.22586 27.8395 2.13538 27.5842 2.20266C26.8873 2.38362 25.4728 2.9265 24.309 4.47858C24.0261 4.85674 23.4626 4.85674 23.1797 4.47858C22.0182 2.92418 20.6037 2.38362 19.9045 2.20266C19.6492 2.13538 19.3801 2.22586 19.2076 2.4277L18.5337 3.22346C18.1519 3.67586 17.8851 4.2141 17.7563 4.7941C17.5976 5.5133 17.6597 6.26034 17.9311 6.94474C18.3865 8.08386 19.0788 10.2832 19.4422 13.7493C19.4422 13.7493 21.802 14.2458 23.2395 16.1667C23.5017 16.5031 23.9985 16.5031 24.2492 16.1667Z" stroke="black" stroke-width="1.2" stroke-miterlimit="10" stroke-linejoin="round"/>
</g>
</svg>
