<svg width="47" height="59" viewBox="0 0 47 59" fill="none" xmlns="http://www.w3.org/2000/svg">
<g id="mermaid">
<path id="Vector" d="M22.7899 7.36732C22.9199 7.46778 23.0792 7.52223 23.243 7.52223C23.4068 7.52223 23.566 7.46778 23.6961 7.36732C24.0606 7.09004 24.445 6.84035 24.8461 6.62028C25.1126 6.4685 25.416 6.39521 25.7218 6.40875C26.0275 6.42228 26.3234 6.5221 26.5757 6.69684C27.0058 7.005 27.3677 7.40003 27.6383 7.85684C27.7815 8.08607 27.8575 8.35149 27.8575 8.62244C27.8575 8.89339 27.7815 9.15881 27.6383 9.38804C26.9959 10.4278 26.4086 11.5011 25.8788 12.6036C24.1366 12.9933 22.331 12.9933 20.5888 12.6036C20.059 11.5011 19.4717 10.4278 18.8293 9.38804C18.6861 9.15881 18.6101 8.89339 18.6101 8.62244C18.6101 8.35149 18.6861 8.08607 18.8293 7.85684C19.0999 7.40003 19.4618 7.005 19.8919 6.69684C20.1462 6.5184 20.4454 6.41647 20.7549 6.40292C21.0643 6.38937 21.3713 6.46474 21.6399 6.62028C22.041 6.84035 22.4254 7.09004 22.7899 7.36732Z" stroke="black" stroke-width="1.2" stroke-linejoin="round"/>
<path id="Vector_2" d="M25.895 12.6006C25.895 12.6006 26.4746 14.0715 27.5671 16.5214C28.8505 19.4051 28.3606 22.7274 27.5671 26.9359C26.8012 30.9959 27.9512 36.0929 30.1914 40.8211C32.1234 44.8973 35.3503 50.5975 36.7326 53.0034C36.8187 53.152 36.8719 53.3177 36.8883 53.489C36.9048 53.6604 36.8843 53.8333 36.8281 53.9958C36.7719 54.1584 36.6814 54.3067 36.5629 54.4306C36.4443 54.5544 36.3006 54.6508 36.1415 54.7132C34.1658 55.4997 29.8533 56.8244 23.25 56.8244C16.6467 56.8244 12.3342 55.4997 10.37 54.7132C10.211 54.6508 10.0672 54.5544 9.94867 54.4306C9.83014 54.3067 9.73966 54.1584 9.68347 53.9958C9.62728 53.8333 9.60671 53.6604 9.62319 53.489C9.63967 53.3177 9.6928 53.152 9.77891 53.0034C11.1589 50.5975 14.3789 44.8973 16.3201 40.8211C18.5603 36.0929 19.7103 30.9959 18.9444 26.9359C18.1509 22.7274 17.661 19.4051 18.9444 16.5214C20.03 14.0715 20.605 12.6006 20.605 12.6006" stroke="black" stroke-width="1.2" stroke-linejoin="round"/>
<path id="Vector_3" d="M27.1509 7.18612L27.5189 3.56228L25.1177 2.18652L25.3684 6.43676" stroke="black" stroke-width="1.2" stroke-linejoin="round"/>
<path id="Vector_4" d="M19.3492 7.18612L18.9812 3.56228L21.3824 2.18652L21.1317 6.43676" stroke="black" stroke-width="1.2" stroke-linejoin="round"/>
</g>
</svg>
