<svg width="47" height="59" viewBox="0 0 47 59" fill="none" xmlns="http://www.w3.org/2000/svg">
<g id="short">
<path id="Vector" d="M23.75 50.9316C32.0898 50.9316 36.7358 48.7137 38.6356 47.5189C38.9527 47.319 39.2092 47.0349 39.3767 46.6977C39.5443 46.3604 39.6165 45.9832 39.5855 45.6072C38.5643 33.2416 33.41 25.9963 30.5327 22.8504C29.3413 21.5465 28.2925 19.9225 28.2074 18.1593C28.1996 17.9951 28.2128 17.8306 28.2465 17.6698C28.3799 16.9506 28.8652 14.7304 30.2498 11.0787C30.3223 10.8886 30.3438 10.6826 30.3124 10.4814C30.2809 10.2802 30.1974 10.0909 30.0704 9.9326C29.132 8.7726 27.1747 6.59876 24.5274 9.55908C24.4291 9.6686 24.3091 9.75612 24.1752 9.81602C24.0413 9.87593 23.8965 9.90687 23.75 9.90687C23.6035 9.90687 23.4587 9.87593 23.3248 9.81602C23.1909 9.75612 23.0709 9.6686 22.9726 9.55908C20.3253 6.59876 18.3726 8.77724 17.4296 9.9326C17.3026 10.0909 17.2191 10.2802 17.1876 10.4814C17.1561 10.6826 17.1777 10.8886 17.2502 11.0787C18.6302 14.7304 19.1201 16.9506 19.2535 17.6698C19.2872 17.8306 19.3004 17.9951 19.2926 18.1593C19.2075 19.9225 18.1587 21.5465 16.9673 22.8504C14.09 25.9963 8.9357 33.244 7.9145 45.6096C7.88346 45.9855 7.95568 46.3628 8.12325 46.7C8.29082 47.0372 8.54725 47.3214 8.8644 47.5212C10.7757 48.7137 15.4447 50.9316 23.75 50.9316Z" stroke="black" stroke-width="1.2" stroke-linejoin="round"/>
<path id="Vector_2" d="M29.1274 20.9834C27.3759 21.4772 25.5683 21.7392 23.75 21.7629C21.9316 21.7392 20.124 21.4772 18.3726 20.9834" stroke="black" stroke-width="1.2" stroke-linejoin="round"/>
<path id="Vector_3" d="M28.2373 17.8604C28.2373 17.8604 25.6383 18.3963 23.75 18.3963C21.8617 18.3963 19.2627 17.8604 19.2627 17.8604" stroke="black" stroke-width="1.2" stroke-linejoin="round"/>
</g>
</svg>
