<svg width="47" height="59" viewBox="0 0 47 59" fill="none" xmlns="http://www.w3.org/2000/svg">
<g id="closed">
<path id="Vector" d="M27.4016 15.0996C27.4016 15.0996 25.8859 15.7423 23.2616 15.7423C20.6373 15.7423 19.1216 15.0996 19.1216 15.0996" stroke="black" stroke-width="1.2" stroke-linecap="round" stroke-linejoin="round"/>
<path id="Vector_2" d="M26.4538 2.16995C26.3343 2.16892 26.2164 2.19845 26.1111 2.25579C25.6902 2.47851 24.4689 3.05387 23.2499 3.05387C22.0309 3.05387 20.8096 2.47851 20.3887 2.25579C20.2835 2.19845 20.1656 2.16892 20.046 2.16995H19.126C18.5014 2.16978 17.8944 2.37884 17.4002 2.76431C16.9061 3.14978 16.5529 3.68983 16.3959 4.29971L13.2173 16.6282H16.1429L18.8339 6.88419H18.8638C18.8638 6.88419 21.6537 13.3291 19.0938 15.1016C19.0938 15.1016 15.1838 17.7464 12.3847 32.0979C10.9829 39.2207 10.0418 46.4279 9.56725 53.6739C9.54691 54.0026 9.63809 54.3285 9.82578 54.5979C10.0135 54.8674 10.2865 55.0643 10.5999 55.1564C12.5664 55.7341 17.0882 56.8245 23.2499 56.8245C29.4116 56.8245 33.9288 55.7341 35.8999 55.1564C36.213 55.0644 36.4857 54.8678 36.6734 54.5988C36.861 54.3299 36.9525 54.0046 36.9326 53.6763C36.4581 46.4303 35.517 39.2231 34.1151 32.1003C31.3206 17.7487 27.406 15.1039 27.406 15.1039C24.8507 13.3315 27.636 6.88651 27.636 6.88651H27.6659L30.3569 16.6305H33.2825L30.1086 4.30203C29.9526 3.69364 29.6012 3.15449 29.1094 2.76877C28.6176 2.38305 28.0129 2.17248 27.3899 2.16995H26.4538Z" stroke="black" stroke-width="1.2" stroke-linecap="round" stroke-linejoin="round"/>
</g>
</svg>
