<svg width="47" height="59" viewBox="0 0 47 59" fill="none" xmlns="http://www.w3.org/2000/svg">
<g id="boho">
<path id="Vector" d="M23.7499 56.094C27.1972 56.1067 30.6277 55.6096 33.932 54.6185C34.0783 54.5731 34.2132 54.4965 34.3276 54.3939C34.442 54.2913 34.5333 54.1652 34.5952 54.024C34.6571 53.8828 34.6883 53.7298 34.6865 53.5754C34.6848 53.4211 34.6503 53.2688 34.5852 53.1291C32.7222 49.1433 31.6987 42.174 31.3882 37.9261C31.0455 33.2699 30.2382 22.2708 28.9939 19.0135C27.3977 14.8375 27.3977 12.9815 27.3977 12.9815C27.7496 11.4387 28.596 9.86805 29.0905 9.03749C29.2156 8.8295 29.27 8.58606 29.2455 8.34407C29.221 8.10208 29.1189 7.87474 28.9548 7.69653C28.6338 7.3575 28.2452 7.09086 27.8147 6.91412C27.3842 6.73738 26.9215 6.65456 26.457 6.67109C25.1598 6.67109 24.387 7.59909 24.0236 8.20925C23.9952 8.2568 23.955 8.29613 23.9071 8.32343C23.8591 8.35073 23.805 8.36507 23.7499 8.36507C23.6949 8.36507 23.6407 8.35073 23.5928 8.32343C23.5448 8.29613 23.5047 8.2568 23.4762 8.20925C23.1059 7.58981 22.34 6.67109 21.0428 6.67109C20.5785 6.65426 20.1159 6.73672 19.6854 6.91306C19.2549 7.08939 18.8663 7.3556 18.545 7.69421C18.3809 7.87242 18.2788 8.09976 18.2544 8.34174C18.2299 8.58373 18.2843 8.82718 18.4093 9.03517C18.9038 9.86573 19.7502 11.4364 20.1021 12.9792C20.1021 12.9792 20.1021 14.8352 18.5059 19.0112C17.2616 22.2592 16.4543 33.2676 16.1116 37.9238C15.8011 42.1717 14.7776 49.141 12.9146 53.1268C12.8496 53.2665 12.815 53.4187 12.8133 53.5731C12.8116 53.7275 12.8427 53.8805 12.9047 54.0217C12.9666 54.1629 13.0578 54.289 13.1722 54.3916C13.2866 54.4941 13.4215 54.5707 13.5678 54.6162C16.872 55.6081 20.3025 56.106 23.7499 56.094Z" stroke="black" stroke-width="1.2" stroke-linejoin="round"/>
<path id="Vector_2" d="M27.3979 12.9766C27.3979 12.9766 25.9926 13.5705 23.7501 13.5705C21.5076 13.5705 20.1023 12.9766 20.1023 12.9766" stroke="black" stroke-width="1.2" stroke-linejoin="round"/>
<path id="Vector_3" d="M22.7427 13.5289L22.3816 12" stroke="black" stroke-width="1.2" stroke-linecap="round" stroke-linejoin="round"/>
<path id="Vector_4" d="M24.7573 13.5289L25.1184 12" stroke="black" stroke-width="1.2" stroke-linecap="round" stroke-linejoin="round"/>
<path id="Vector_5" d="M19.2995 7.10492L18.9246 3.56228L21.3281 2.18652L21.0613 6.66644" stroke="black" stroke-width="1.2" stroke-linejoin="round"/>
<path id="Vector_6" d="M28.2005 7.10492L28.5754 3.56228L26.1719 2.18652L26.4387 6.66644" stroke="black" stroke-width="1.2" stroke-linejoin="round"/>
</g>
</svg>
