<svg width="47" height="59" viewBox="0 0 47 59" fill="none" xmlns="http://www.w3.org/2000/svg">
<g id="straight">
<path id="Vector" d="M23.25 56.7801C24.9972 56.7598 26.7342 56.5071 28.4158 56.0284C28.6372 55.9666 28.8253 55.8189 28.939 55.6177C29.0528 55.4164 29.083 55.1779 29.023 54.9543C27.3394 48.7297 28.5285 29.5758 28.9103 24.4208C29.3105 19.0314 28.4779 16.4585 27.045 12.8393C25.9617 10.111 27.436 6.4686 28.2272 4.83996C28.3705 4.54484 28.4192 4.21204 28.3664 3.88775C28.3137 3.56347 28.1621 3.26381 27.9328 3.03036C26.2837 1.3414 24.63 2.51764 23.7928 3.35284C23.7209 3.42621 23.6353 3.48447 23.541 3.52422C23.4466 3.56398 23.3454 3.58445 23.2431 3.58445C23.1409 3.58445 23.0396 3.56398 22.9452 3.52422C22.8509 3.48447 22.7653 3.42621 22.6934 3.35284C21.8539 2.50836 20.1634 1.3182 18.5097 3.08372C18.2957 3.31604 18.1574 3.6089 18.1135 3.92289C18.0695 4.23687 18.1219 4.55692 18.2636 4.83996C19.0548 6.46396 20.5314 10.111 19.4481 12.8393C18.0152 16.4585 17.1826 19.0314 17.5828 24.4208C17.9646 29.5758 19.1537 48.7297 17.4701 54.9543C17.4101 55.1779 17.4403 55.4164 17.5541 55.6177C17.6679 55.8189 17.856 55.9666 18.0773 56.0284C19.7612 56.5077 21.5005 56.7605 23.25 56.7801Z" stroke="black" stroke-width="1.2" stroke-linejoin="round"/>
</g>
</svg>
