<svg width="131" height="24" viewBox="0 0 131 24" fill="none" xmlns="http://www.w3.org/2000/svg">
<path d="M128.105 23.4902H131V0.51022H128.105V23.4902ZM22.7373 23.53L2.92817 6.8805L2.89419 23.5679H0L0.0352359 4.87318V0.673023L19.8427 17.3269V0.673023H22.7373V19.7601V21.2452V23.3355V23.53ZM106.276 0.307341L96.547 20.0398L94.9384 23.3012L93.331 20.0398L83.6005 0.307341H86.8177L94.9384 16.7779L103.06 0.307341H106.276ZM53.0386 0C59.68 0 65.0629 5.37267 65.0629 12.0003C65.0629 18.6278 59.68 24 53.0386 24C46.3967 24 41.0127 18.6278 41.0127 12.0003C41.0127 5.37267 46.3967 0 53.0386 0ZM59.4958 5.55546C57.8437 3.90674 55.5601 2.88676 53.0386 2.88676C50.5159 2.88676 48.2326 3.90674 46.58 5.55546C44.9277 7.20474 43.9057 9.48366 43.9057 12.0003C43.9057 14.5169 44.9277 16.7957 46.58 18.4445C48.2326 20.0933 50.5159 21.1137 53.0386 21.1137C55.5601 21.1137 57.8437 20.0933 59.4958 18.4445C61.1478 16.7957 62.1707 14.5169 62.1707 12.0003C62.1707 9.48366 61.1478 7.20474 59.4958 5.55546Z" fill="black"/>
</svg>
