<svg width="0" height="0" class="hidden">
  <symbol fill="none" xmlns="http://www.w3.org/2000/svg" viewBox="0 0 4 7" id="ic_arr_hor">
    <path d="M0 0.363868L3.24463 3.50001L0 6.63613L0.378916 7L4 3.50001L0.378916 0L0 0.363868Z" fill="currentColor"></path>
  </symbol>
  <symbol fill="none" xmlns="http://www.w3.org/2000/svg" viewBox="0 0 8 16" id="ic_arr_hor2">
    <path d="M7.99976 0.831699L1.5105 8.00002L7.99976 15.1683L7.24192 16L-0.000243664 8.00002L7.24192 1.90735e-06L7.99976 0.831699Z" fill="currentColor"></path>
  </symbol>
  <symbol fill="none" xmlns="http://www.w3.org/2000/svg" viewBox="0 0 13 8" id="ic_arr_ver">
    <path d="M12.3242 0L6.49998 6.48926L0.675754 0L0 0.757832L6.49998 8L13 0.757832L12.3242 0Z" fill="currentColor"></path>
  </symbol>
  <symbol fill="none" xmlns="http://www.w3.org/2000/svg" viewBox="0 0 25 27" id="ic_calendar">
    <path d="M24.5536 1.8H21.4286V0.45C21.4286 0.20115 21.229 0 20.9821 0H17.8571C17.6103 0 17.4107 0.20115 17.4107 0.45V1.8H7.58929V0.45C7.58929 0.20115 7.38973 0 7.14286 0H4.01786C3.77098 0 3.57143 0.20115 3.57143 0.45V1.8H0.446429C0.199554 1.8 0 2.00115 0 2.25V7.2V26.55C0 26.7988 0.199554 27 0.446429 27H24.5536C24.8004 27 25 26.7988 25 26.55V7.2V2.25C25 2.00115 24.8004 1.8 24.5536 1.8ZM18.3036 0.9H20.5357V2.25V3.6H18.3036V2.25V0.9ZM4.46429 0.9H6.69643V2.25V3.6H4.46429V2.25V0.9ZM0.892857 2.7H3.57143V4.05C3.57143 4.29885 3.77098 4.5 4.01786 4.5H7.14286C7.38973 4.5 7.58929 4.29885 7.58929 4.05V2.7H17.4107V4.05C17.4107 4.29885 17.6103 4.5 17.8571 4.5H20.9821C21.229 4.5 21.4286 4.29885 21.4286 4.05V2.7H24.1071V6.75H0.892857V2.7ZM0.892857 26.1V7.65H24.1071V26.1H0.892857Z" fill="currentColor"></path>
    <path d="M16.0711 10.3496H12.9461H12.0533H8.92829H8.03543H4.01758V14.3996V15.2996V18.4496V19.3496V23.3996H8.03543H8.92829H12.0533H12.9461H16.0711H16.964H20.9819V19.3496V18.4496V15.2996V14.3996V10.3496H16.964H16.0711ZM12.9461 11.2496H16.0711V14.3996H12.9461V11.2496ZM16.0711 18.4496H12.9461V15.2996H16.0711V18.4496ZM8.92829 15.2996H12.0533V18.4496H8.92829V15.2996ZM8.92829 11.2496H12.0533V14.3996H8.92829V11.2496ZM4.91044 11.2496H8.03543V14.3996H4.91044V11.2496ZM4.91044 15.2996H8.03543V18.4496H4.91044V15.2996ZM8.03543 22.4996H4.91044V19.3496H8.03543V22.4996ZM12.0533 22.4996H8.92829V19.3496H12.0533V22.4996ZM16.0711 22.4996H12.9461V19.3496H16.0711V22.4996ZM20.089 22.4996H16.964V19.3496H20.089V22.4996ZM20.089 18.4496H16.964V15.2996H20.089V18.4496ZM20.089 11.2496V14.3996H16.964V11.2496H20.089Z" fill="currentColor"></path>
  </symbol>
  <symbol fill="none" xmlns="http://www.w3.org/2000/svg" viewBox="0 0 9 8" id="ic_check">
    <path d="M7.92044 0.705078L3.48961 5.13591L1.07956 2.72588L0 3.80544L3.48961 7.29505L9 1.78466L7.92044 0.705078Z" fill="currentColor"></path>
  </symbol>
  <symbol fill="none" xmlns="http://www.w3.org/2000/svg" viewBox="0 0 20 18" id="ic_favorite">
    <path fill-rule="evenodd" clip-rule="evenodd" d="M9.99384 2.84049C8.19442 0.717263 5.19377 0.146121 2.93923 2.09036C0.68468 4.03461 0.367271 7.28528 2.13778 9.58475C3.60984 11.4966 8.0648 15.5288 9.52489 16.8339C9.68824 16.9799 9.76992 17.0529 9.86519 17.0816C9.94834 17.1066 10.0393 17.1066 10.1225 17.0816C10.2178 17.0529 10.2994 16.9799 10.4628 16.8339C11.9229 15.5288 16.3778 11.4966 17.8499 9.58475C19.6204 7.28528 19.3417 4.01416 17.0484 2.09036C14.7551 0.166572 11.7933 0.717263 9.99384 2.84049Z" stroke="currentColor" stroke-width="1.2" stroke-linecap="round" stroke-linejoin="round"></path>
  </symbol>
  <symbol fill="none" xmlns="http://www.w3.org/2000/svg" viewBox="0 0 30 30" id="ic_close">
    <path d="M12.5379 11.2121C12.1718 10.846 11.5782 10.846 11.2121 11.2121C10.846 11.5782 10.846 12.1718 11.2121 12.5379L13.6742 15L11.2121 17.4621C10.846 17.8281 10.846 18.4218 11.2121 18.7879C11.5782 19.154 12.1718 19.154 12.5379 18.7879L15 16.3259L17.462 18.7879C17.8282 19.154 18.4218 19.154 18.7879 18.7879C19.154 18.4218 19.154 17.8281 18.7879 17.462L16.3258 15L18.7879 12.5379C19.154 12.1718 19.154 11.5782 18.7879 11.2121C18.4218 10.846 17.8282 10.846 17.462 11.2121L15 13.6741L12.5379 11.2121Z" fill="currentColor"></path>
    <path fill-rule="evenodd" clip-rule="evenodd" d="M15 1.5625C7.57867 1.5625 1.5625 7.57867 1.5625 15C1.5625 22.4214 7.57867 28.4375 15 28.4375C22.4214 28.4375 28.4375 22.4214 28.4375 15C28.4375 7.57867 22.4214 1.5625 15 1.5625ZM3.4375 15C3.4375 8.61421 8.61421 3.4375 15 3.4375C21.3857 3.4375 26.5625 8.61421 26.5625 15C26.5625 21.3857 21.3857 26.5625 15 26.5625C8.61421 26.5625 3.4375 21.3857 3.4375 15Z" fill="currentColor"></path>
  </symbol>
  <symbol fill="none" xmlns="http://www.w3.org/2000/svg" viewBox="0 0 12 8" id="ic_filter">
    <path d="M1 0.666992L11 0.666992" stroke="currentColor" stroke-width="1.1" stroke-linecap="round"></path>
    <path d="M2.66732 4L9.33398 4" stroke="currentColor" stroke-width="1.1" stroke-linecap="round"></path>
    <path d="M4.33268 7.33398L7.66602 7.33398" stroke="currentColor" stroke-width="1.1" stroke-linecap="round"></path>
  </symbol>
  <symbol fill="none" xmlns="http://www.w3.org/2000/svg" viewBox="0 0 20 20" id="ic_download">
    <path d="M10.6 1C10.6 0.668629 10.3314 0.4 10 0.4C9.66863 0.4 9.4 0.668629 9.4 1L10.6 1ZM9.4 12C9.4 12.3314 9.66863 12.6 10 12.6C10.3314 12.6 10.6 12.3314 10.6 12H9.4ZM14.4243 10.4243C14.6586 10.1899 14.6586 9.81005 14.4243 9.57574C14.1899 9.34142 13.8101 9.34142 13.5757 9.57574L14.4243 10.4243ZM10.7071 13.2929L10.2828 12.8686L10.7071 13.2929ZM9.29289 13.2929L9.71716 12.8686L9.29289 13.2929ZM6.42426 9.57574C6.18995 9.34142 5.81005 9.34142 5.57574 9.57574C5.34142 9.81005 5.34142 10.1899 5.57574 10.4243L6.42426 9.57574ZM1.6 14C1.6 13.6686 1.33137 13.4 1 13.4C0.668629 13.4 0.4 13.6686 0.4 14H1.6ZM19.6 14C19.6 13.6686 19.3314 13.4 19 13.4C18.6686 13.4 18.4 13.6686 18.4 14H19.6ZM17.362 18.673L17.0896 18.1384V18.1384L17.362 18.673ZM18.673 17.362L19.2076 17.6344L18.673 17.362ZM1.32698 17.362L0.792377 17.6344L1.32698 17.362ZM2.63803 18.673L2.36563 19.2076H2.36563L2.63803 18.673ZM9.4 1L9.4 12H10.6L10.6 1L9.4 1ZM13.5757 9.57574L10.2828 12.8686L11.1314 13.7172L14.4243 10.4243L13.5757 9.57574ZM9.71716 12.8686L6.42426 9.57574L5.57574 10.4243L8.86863 13.7172L9.71716 12.8686ZM10.2828 12.8686C10.1266 13.0248 9.87337 13.0248 9.71716 12.8686L8.86863 13.7172C9.49347 14.342 10.5065 14.342 11.1314 13.7172L10.2828 12.8686ZM0.4 14V14.2H1.6V14H0.4ZM5.8 19.6H14.2V18.4H5.8V19.6ZM19.6 14.2V14H18.4V14.2H19.6ZM14.2 19.6C15.0302 19.6 15.6889 19.6005 16.2193 19.5571C16.7566 19.5132 17.2148 19.4214 17.6344 19.2076L17.0896 18.1384C16.8674 18.2516 16.5847 18.3233 16.1215 18.3611C15.6514 18.3995 15.05 18.4 14.2 18.4V19.6ZM18.4 14.2C18.4 15.05 18.3995 15.6514 18.3611 16.1215C18.3233 16.5847 18.2516 16.8674 18.1384 17.0896L19.2076 17.6344C19.4214 17.2148 19.5132 16.7566 19.5571 16.2193C19.6005 15.6889 19.6 15.0302 19.6 14.2H18.4ZM17.6344 19.2076C18.3118 18.8625 18.8625 18.3118 19.2076 17.6344L18.1384 17.0896C17.9083 17.5412 17.5412 17.9083 17.0896 18.1384L17.6344 19.2076ZM0.4 14.2C0.4 15.0302 0.399533 15.6889 0.442865 16.2193C0.486769 16.7566 0.578606 17.2148 0.792376 17.6344L1.86158 17.0896C1.74837 16.8674 1.67672 16.5847 1.63888 16.1215C1.60047 15.6514 1.6 15.05 1.6 14.2H0.4ZM5.8 18.4C4.95002 18.4 4.34862 18.3995 3.87847 18.3611C3.41531 18.3233 3.13261 18.2516 2.91042 18.1384L2.36563 19.2076C2.78518 19.4214 3.24339 19.5132 3.78075 19.5571C4.3111 19.6005 4.96982 19.6 5.8 19.6V18.4ZM0.792377 17.6344C1.13752 18.3118 1.68825 18.8625 2.36563 19.2076L2.91042 18.1384C2.45883 17.9083 2.09168 17.5412 1.86158 17.0896L0.792377 17.6344Z" fill="currentColor"></path>
  </symbol>
  <symbol fill="none" xmlns="http://www.w3.org/2000/svg" viewBox="0 0 20 14" id="ic_fitting_room">
    <path d="M7.7823 2.63636C7.7823 1.73263 8.63812 1 9.69391 1C10.7496 1 11.6055 1.73263 11.6055 2.63636C11.6055 3.0617 11.4441 3.44914 11.1632 3.74013C10.6253 4.29748 9.82135 4.85883 9.82135 5.58186V5.82563M9.82135 5.82563C10.4797 5.81834 11.1407 5.99251 11.696 6.34909L18.3853 10.6436C19.5611 11.3984 18.9374 13 17.4677 13H2.53228C1.07849 13 0.444898 11.427 1.58978 10.66L7.9759 6.38174C8.51806 6.01857 9.1684 5.83283 9.82135 5.82563Z" stroke="currentColor" stroke-width="1.2" stroke-linecap="round"></path>
  </symbol>
  <symbol fill="none" xmlns="http://www.w3.org/2000/svg" viewBox="0 0 19 20" id="ic_instagram">
    <path fill-rule="evenodd" clip-rule="evenodd" d="M13.1429 1.60938H5.85714C3.17462 1.60938 1 3.78399 1 6.46652V13.7522C1 16.4347 3.17462 18.6094 5.85714 18.6094H13.1429C15.8253 18.6094 18 16.4347 18 13.7522V6.46652C18 3.78399 15.8253 1.60938 13.1429 1.60938Z" stroke="currentColor" stroke-width="1.4" stroke-linecap="round" stroke-linejoin="round"></path>
    <path fill-rule="evenodd" clip-rule="evenodd" d="M9.50003 13.7525C7.48808 13.7525 5.85718 12.1216 5.85718 10.1097C5.85718 8.0977 7.48808 6.4668 9.50003 6.4668C11.512 6.4668 13.1429 8.0977 13.1429 10.1097C13.1429 11.0757 12.7591 12.0024 12.0759 12.6855C11.3927 13.3687 10.4661 13.7525 9.50003 13.7525Z" stroke="currentColor" stroke-width="1.4" stroke-linecap="round" stroke-linejoin="round"></path>
    <path d="M14.3569 4.03823C13.6862 4.03823 13.1426 4.58188 13.1426 5.25251C13.1426 5.92314 13.6862 6.4668 14.3569 6.4668C15.0275 6.4668 15.5711 5.92314 15.5711 5.25251C15.5711 4.58188 15.0275 4.03823 14.3569 4.03823Z" fill="currentColor"></path>
    <path d="M14.3569 4.64314C14.0216 4.64314 13.7498 4.91496 13.7498 5.25028C13.7498 5.58559 14.0216 5.85742 14.3569 5.85742C14.6922 5.85742 14.964 5.58559 14.964 5.25028C14.964 4.91496 14.6922 4.64314 14.3569 4.64314Z" stroke="currentColor" stroke-width="1.4" stroke-linecap="round"></path>
  </symbol>
  <symbol fill="none" xmlns="http://www.w3.org/2000/svg" viewBox="0 0 14 14" id="ic_link_arrow">
    <path d="M12.5 4.33333C12.5 4.60948 12.7239 4.83333 13 4.83333C13.2761 4.83333 13.5 4.60948 13.5 4.33333H12.5ZM9.66667 0.5C9.39052 0.5 9.16667 0.723858 9.16667 1C9.16667 1.27614 9.39052 1.5 9.66667 1.5V0.5ZM6.64645 6.64645C6.45118 6.84171 6.45118 7.15829 6.64645 7.35355C6.84171 7.54882 7.15829 7.54882 7.35355 7.35355L6.64645 6.64645ZM12.9637 1.182L12.5182 1.40899L12.5182 1.409L12.9637 1.182ZM12.818 1.03633L12.591 1.48183V1.48184L12.818 1.03633ZM7 2.83333C7.27614 2.83333 7.5 2.60948 7.5 2.33333C7.5 2.05719 7.27614 1.83333 7 1.83333V2.83333ZM12.1667 7C12.1667 6.72386 11.9428 6.5 11.6667 6.5C11.3905 6.5 11.1667 6.72386 11.1667 7H12.1667ZM2.45603 12.7094L2.68302 12.2638L2.45603 12.7094ZM1.29065 11.544L0.845146 11.771L1.29065 11.544ZM10.2106 12.7094L9.98365 12.2638L10.2106 12.7094ZM11.376 11.544L10.9305 11.317L11.376 11.544ZM1.29065 3.78936L0.845146 3.56236H0.845146L1.29065 3.78936ZM2.45603 2.62398L2.22903 2.17848L2.22903 2.17848L2.45603 2.62398ZM13 4.33333H13.5V1.53333H13H12.5V4.33333H13ZM12.4667 1V0.5H9.66667V1V1.5H12.4667V1ZM12.9024 1.09763L12.5488 0.744078L6.64645 6.64645L7 7L7.35355 7.35355L13.2559 1.45118L12.9024 1.09763ZM13 1.53333H13.5C13.5 1.44824 13.5004 1.35435 13.4938 1.27368C13.4867 1.18718 13.4692 1.07289 13.4092 0.955008L12.9637 1.182L12.5182 1.409C12.4944 1.36242 12.4951 1.33045 12.4971 1.35512C12.4981 1.36715 12.499 1.38617 12.4995 1.41757C12.5 1.44895 12.5 1.48552 12.5 1.53333H13ZM12.4667 1V1.5C12.5145 1.5 12.5511 1.50001 12.5824 1.50051C12.6138 1.501 12.6329 1.5019 12.6449 1.50288C12.6695 1.5049 12.6376 1.50557 12.591 1.48183L12.818 1.03633L13.045 0.590827C12.9271 0.530762 12.8128 0.51327 12.7263 0.506202C12.6456 0.499611 12.5518 0.5 12.4667 0.5V1ZM12.9637 1.182L13.4092 0.955012C13.3692 0.876609 13.3174 0.80553 13.2559 0.744078L12.9024 1.09763L12.5488 1.45118C12.5365 1.4389 12.5262 1.42468 12.5182 1.40899L12.9637 1.182ZM12.9024 1.09763L13.2559 0.744078C13.1945 0.682625 13.1234 0.630774 13.045 0.590827L12.818 1.03633L12.591 1.48184C12.5753 1.47385 12.5611 1.46347 12.5488 1.45118L12.9024 1.09763ZM7.4 13V12.5H5.26667V13V13.5H7.4V13ZM1 8.73333H1.5V6.6H1H0.5V8.73333H1ZM5.26667 2.33333V2.83333H7V2.33333V1.83333H5.26667V2.33333ZM11.6667 7H11.1667V8.73333H11.6667H12.1667V7H11.6667ZM5.26667 13V12.5C4.51168 12.5 3.97551 12.4996 3.55592 12.4653C3.14217 12.4315 2.886 12.3673 2.68302 12.2638L2.45603 12.7094L2.22903 13.1549C2.59648 13.3421 2.9989 13.4232 3.47449 13.462C3.94425 13.5004 4.52818 13.5 5.26667 13.5V13ZM1 8.73333H0.5C0.5 9.47182 0.499611 10.0558 0.537992 10.5255C0.576849 11.0011 0.657921 11.4035 0.845146 11.771L1.29065 11.544L1.73615 11.317C1.63273 11.114 1.56848 10.8578 1.53467 10.4441C1.50039 10.0245 1.5 9.48832 1.5 8.73333H1ZM2.45603 12.7094L2.68302 12.2638C2.27534 12.0561 1.94388 11.7247 1.73615 11.317L1.29065 11.544L0.845146 11.771C1.14875 12.3668 1.63318 12.8513 2.22903 13.1549L2.45603 12.7094ZM7.4 13V13.5C8.13849 13.5 8.72242 13.5004 9.19218 13.462C9.66777 13.4232 10.0702 13.3421 10.4376 13.1549L10.2106 12.7094L9.98365 12.2638C9.78066 12.3673 9.5245 12.4315 9.11075 12.4653C8.69116 12.4996 8.15499 12.5 7.4 12.5V13ZM11.6667 8.73333H11.1667C11.1667 9.48832 11.1663 10.0245 11.132 10.4441C11.0982 10.8578 11.0339 11.114 10.9305 11.317L11.376 11.544L11.8215 11.771C12.0087 11.4035 12.0898 11.0011 12.1287 10.5255C12.1671 10.0558 12.1667 9.47182 12.1667 8.73333H11.6667ZM10.2106 12.7094L10.4376 13.1549C11.0335 12.8513 11.5179 12.3668 11.8215 11.771L11.376 11.544L10.9305 11.317C10.7228 11.7247 10.3913 12.0561 9.98365 12.2638L10.2106 12.7094ZM1 6.6H1.5C1.5 5.84501 1.50039 5.30884 1.53467 4.88925C1.56848 4.4755 1.63273 4.21934 1.73615 4.01635L1.29065 3.78936L0.845146 3.56236C0.657921 3.92981 0.576849 4.33223 0.537992 4.80782C0.499611 5.27758 0.5 5.86151 0.5 6.6H1ZM5.26667 2.33333V1.83333C4.52818 1.83333 3.94425 1.83294 3.47449 1.87133C2.9989 1.91018 2.59648 1.99125 2.22903 2.17848L2.45603 2.62398L2.68302 3.06949C2.886 2.96606 3.14217 2.90181 3.55592 2.868C3.97551 2.83372 4.51168 2.83333 5.26667 2.83333V2.33333ZM1.29065 3.78936L1.73615 4.01635C1.94388 3.60867 2.27534 3.27721 2.68302 3.06949L2.45603 2.62398L2.22903 2.17848C1.63318 2.48208 1.14875 2.96652 0.845146 3.56236L1.29065 3.78936Z" fill="currentColor"></path>
  </symbol>
  <symbol fill="none" xmlns="http://www.w3.org/2000/svg" viewBox="0 0 10 12" id="ic_location">
    <path fill-rule="evenodd" clip-rule="evenodd" d="M5 0.0625C2.23858 0.0625 0 2.14224 0 4.70772C0 8.68934 5 11.9375 5 11.9375C5 11.9375 10 8.68934 10 4.70772C10 2.14224 7.76142 0.0625 5 0.0625ZM4.96094 7.48437C6.19063 7.48437 7.1875 6.48751 7.1875 5.25781C7.1875 4.02812 6.19063 3.03125 4.96094 3.03125C3.73124 3.03125 2.73438 4.02812 2.73438 5.25781C2.73438 6.48751 3.73124 7.48437 4.96094 7.48437Z" fill="currentColor"></path>
  </symbol>
  <symbol fill="none" xmlns="http://www.w3.org/2000/svg" viewBox="0 0 23 16" id="ic_menu">
    <path fill-rule="evenodd" clip-rule="evenodd" d="M23 2.28571H0V0H23V2.28571Z" fill="currentColor"></path>
    <path fill-rule="evenodd" clip-rule="evenodd" d="M23 9.14314H0V6.85742H23V9.14314Z" fill="currentColor"></path>
    <path fill-rule="evenodd" clip-rule="evenodd" d="M23 15.9996H0V13.7139H23V15.9996Z" fill="currentColor"></path>
  </symbol>
  <symbol fill="none" xmlns="http://www.w3.org/2000/svg" viewBox="0 0 18 18" id="ic_phone">
    <path d="M13.4243 11.7455C12.8689 11.1972 12.1756 11.1972 11.6237 11.7455C11.2028 12.163 10.7818 12.5804 10.3679 13.0049C10.2547 13.1216 10.1592 13.1464 10.0212 13.0686C9.74884 12.92 9.45876 12.7997 9.19698 12.637C7.97653 11.8694 6.95418 10.8824 6.04857 9.7716C5.5993 9.21974 5.19956 8.62897 4.92009 7.96391C4.86349 7.82949 4.87411 7.74105 4.98377 7.63139C5.40474 7.22457 5.81509 6.80714 6.22898 6.38971C6.8056 5.80955 6.8056 5.13034 6.22545 4.54665C5.89646 4.21412 5.56746 3.88867 5.23847 3.55614C4.89887 3.21654 4.5628 2.87339 4.21966 2.53733C3.66427 1.99608 2.97091 1.99608 2.41905 2.54087C1.99455 2.95829 1.58773 3.38634 1.15615 3.79669C0.75641 4.17521 0.55477 4.63863 0.51232 5.17987C0.445107 6.06072 0.660897 6.89204 0.965125 7.70214C1.58773 9.37893 2.53579 10.8682 3.68549 12.2337C5.23847 14.0803 7.09214 15.5413 9.26066 16.5955C10.237 17.0695 11.2488 17.4339 12.3489 17.494C13.106 17.5365 13.7639 17.3455 14.291 16.7547C14.6519 16.3514 15.0587 15.9835 15.4407 15.5979C16.0067 15.0248 16.0103 14.3315 15.4478 13.7655C14.7757 13.0898 14.1 12.4177 13.4243 11.7455Z" fill="currentColor"></path>
    <path d="M12.7497 8.92687L14.0551 8.704C13.8499 7.50477 13.2839 6.41875 12.4243 5.55559C11.5151 4.64644 10.3654 4.07336 9.09899 3.89648L8.91504 5.20891C9.89494 5.34688 10.7864 5.78907 11.4904 6.49304C12.1554 7.1581 12.5905 8.00003 12.7497 8.92687Z" fill="currentColor"></path>
    <path d="M14.7894 3.25221C13.2824 1.74521 11.3757 0.793616 9.27087 0.5L9.08691 1.81243C10.9052 2.06713 12.5537 2.89138 13.8555 4.18965C15.0901 5.42425 15.9002 6.98431 16.1938 8.70002L17.4992 8.47715C17.156 6.48905 16.2186 4.68491 14.7894 3.25221Z" fill="currentColor"></path>
  </symbol>
  <symbol fill="none" xmlns="http://www.w3.org/2000/svg" viewBox="0 0 18 18" id="ic_search">
    <path d="M17 17L13.4 13.4M15.4 8.2C15.4 12.1765 12.1765 15.4 8.2 15.4C4.22355 15.4 1 12.1765 1 8.2C1 4.22355 4.22355 1 8.2 1C12.1765 1 15.4 4.22355 15.4 8.2Z" stroke="currentColor" stroke-width="1.2" stroke-linecap="round"></path>
  </symbol>
  <symbol fill="none" xmlns="http://www.w3.org/2000/svg" viewBox="0 0 9 10" id="ic_star">
    <path d="M4.35719 0.52085C4.24814 0.563071 4.16723 0.625485 4.11622 0.704421C4.08808 0.746642 3.83304 1.34875 3.54985 2.04265C3.03801 3.2946 3.03449 3.30561 2.97997 3.31479C2.95006 3.31846 2.34852 3.37721 1.64143 3.44329C0.274761 3.57179 0.283555 3.56996 0.158672 3.68193C0.0373076 3.7884 -0.0295311 4.01787 0.0126828 4.18125C0.0232363 4.22347 0.0584145 4.29506 0.0900749 4.33912C0.119976 4.38501 0.570258 4.80906 1.08738 5.28083C1.6045 5.75077 2.0495 6.1583 2.07589 6.18583L2.12514 6.23356L1.83316 7.56445C1.64319 8.43457 1.54118 8.93388 1.53942 9.00548C1.53766 9.20006 1.63264 9.3616 1.80325 9.44788C1.92638 9.51213 2.07764 9.5158 2.19549 9.46073C2.23946 9.44054 2.68271 9.16885 3.18048 8.85862C3.67825 8.54839 4.17075 8.24182 4.27277 8.17757C4.37478 8.11332 4.47152 8.05642 4.48559 8.05091C4.49967 8.0454 4.97105 8.3281 5.61833 8.73196C6.22692 9.11195 6.75987 9.44054 6.80384 9.46073C6.92169 9.51764 7.07295 9.51213 7.19608 9.44788C7.36669 9.3616 7.46167 9.20006 7.45991 9.00548C7.45815 8.93388 7.35614 8.43457 7.16618 7.56445L6.87596 6.23356L6.91465 6.19501C6.93576 6.17298 7.38076 5.76546 7.90316 5.28818C8.42556 4.81273 8.87936 4.38501 8.90926 4.33912C8.98137 4.23632 9.00951 4.13168 8.9972 4.00869C8.97785 3.82145 8.85825 3.6544 8.69643 3.59015C8.64718 3.56996 8.19866 3.52039 7.29985 3.43595C6.57166 3.36619 5.97187 3.30561 5.96836 3.30194C5.96484 3.29827 5.72563 2.72186 5.43892 2.02062C5.15222 1.31938 4.89542 0.715435 4.86904 0.678721C4.75998 0.537372 4.51374 0.460272 4.35719 0.52085Z" fill="currentColor"></path>
  </symbol>
  <symbol fill="none" xmlns="http://www.w3.org/2000/svg" viewBox="0 0 16 16" id="ic_tg">
    <path d="M14.2222 2.30549L11.9728 14.6114C11.9728 14.6114 11.6583 15.4647 10.793 15.0551L5.57882 10.7247C6.27965 10.0411 11.7166 4.73726 11.9544 4.49673C12.3219 4.12449 12.0939 3.90296 11.6666 4.18447L3.63574 9.71834L0.537384 8.58655C0.537384 8.58655 0.0496023 8.39877 0.00265741 7.98916C-0.0445652 7.57954 0.553218 7.35771 0.553218 7.35771L13.1842 1.98117C13.1842 1.98117 14.2222 1.48626 14.2222 2.30549Z" fill="currentColor"></path>
  </symbol>
  <symbol fill="none" xmlns="http://www.w3.org/2000/svg" viewBox="0 0 24 24" id="ic_tg2">
    <path fill-rule="evenodd" clip-rule="evenodd" d="M12 0C5.37258 0 0 5.37258 0 12C0 18.6274 5.37258 24 12 24C18.6274 24 24 18.6274 24 12C24 5.37258 18.6274 0 12 0ZM15.1018 17.5421L17 7.38968C17 6.71395 16.1241 7.12226 16.1241 7.12226L5.46678 11.5578C5.46678 11.5578 4.96217 11.7407 5.00227 12.0788C5.04185 12.4164 5.45325 12.5717 5.45325 12.5717L8.06745 13.5049L14.8435 8.93947C15.2039 8.70741 15.3966 8.89029 15.0862 9.19749C14.8857 9.39584 10.2984 13.7717 9.70679 14.3353L9.7271 14.3458L14.1067 17.9084C14.8363 18.246 15.1018 17.5421 15.1018 17.5421Z" fill="currentColor"></path>
  </symbol>
  <symbol fill="none" xmlns="http://www.w3.org/2000/svg" viewBox="0 0 24 16" id="ic_vk">
    <path d="M23.4559 1.89313C23.1859 2.74213 22.8219 3.48113 22.3659 4.15213L22.3849 4.12213C21.9369 4.8688 21.4019 5.73147 20.7799 6.71013C20.2466 7.4828 19.9643 7.8828 19.9329 7.91013C19.7949 8.08313 19.6989 8.29513 19.6659 8.52813L19.6649 8.53513C19.6919 8.74713 19.7899 8.93213 19.9329 9.07013L20.3329 9.51613C22.4729 11.7155 23.6766 13.2315 23.9439 14.0641C23.9789 14.1561 23.9989 14.2621 23.9989 14.3731C23.9989 14.5671 23.9369 14.7461 23.8319 14.8931L23.8339 14.8901C23.6579 15.0711 23.4119 15.1831 23.1399 15.1831C23.1099 15.1831 23.0789 15.1821 23.0499 15.1791H23.0539H20.4229C20.4219 15.1791 20.4199 15.1791 20.4179 15.1791C20.0809 15.1791 19.7709 15.0611 19.5279 14.8651L19.5309 14.8671C19.1769 14.5761 18.8619 14.2611 18.5799 13.9191L18.5709 13.9071C18.1103 13.3865 17.7016 12.9481 17.3449 12.5921C16.1569 11.4628 15.2803 10.8981 14.7149 10.8981C14.6939 10.8961 14.6699 10.8951 14.6449 10.8951C14.4799 10.8951 14.3259 10.9461 14.1989 11.0331L14.2019 11.0311C14.0979 11.1611 14.0349 11.3291 14.0349 11.5101C14.0349 11.5461 14.0369 11.5801 14.0419 11.6151V11.6111C14.0149 11.9251 13.9989 12.2901 13.9989 12.6591C13.9989 12.7781 14.0009 12.8961 14.0039 13.0141V12.9971V14.1561C14.0139 14.2031 14.0199 14.2571 14.0199 14.3121C14.0199 14.5541 13.9099 14.7701 13.7379 14.9131L13.7369 14.9141C13.3499 15.0911 12.8979 15.1951 12.4209 15.1951C12.3189 15.1951 12.2189 15.1901 12.1199 15.1811L12.1329 15.1821C10.5589 15.1521 9.09893 14.6911 7.85793 13.9141L7.89293 13.9341C6.38193 13.0161 5.12993 11.8211 4.17593 10.4091L4.14893 10.3671C3.24293 9.16513 2.39793 7.80713 1.67793 6.37513L1.60793 6.22113C1.18693 5.41913 0.75093 4.43313 0.37493 3.41913L0.31493 3.23413C0.16193 2.77813 0.0509297 2.24813 0.00492969 1.69913L0.00292969 1.67413C0.00292969 1.1688 0.300263 0.916133 0.89493 0.916133H3.52493C3.54893 0.914133 3.57693 0.913133 3.60593 0.913133C3.85393 0.913133 4.08293 0.998133 4.26393 1.14113L4.26193 1.13913C4.46193 1.35813 4.60993 1.62713 4.68293 1.92713L4.68593 1.93913C5.16993 3.30613 5.68293 4.45413 6.27293 5.55413L6.20593 5.41713C6.68793 6.38713 7.22093 7.22213 7.82893 7.99313L7.80593 7.96213C8.33926 8.6168 8.75526 8.94413 9.05393 8.94413C9.06293 8.94513 9.07393 8.94513 9.08593 8.94513C9.23393 8.94513 9.36293 8.86513 9.43293 8.74513L9.43393 8.74313C9.50793 8.55313 9.55093 8.33213 9.55093 8.10213C9.55093 8.05313 9.54893 8.00413 9.54493 7.95613V7.96213V4.08313C9.52393 3.62613 9.41193 3.19913 9.22493 2.81613L9.23293 2.83513C9.10893 2.57113 8.95993 2.34313 8.78293 2.14013L8.78593 2.14413C8.62193 1.98013 8.50993 1.76513 8.47493 1.52513L8.47393 1.51913C8.47393 1.34913 8.55193 1.19613 8.67393 1.09613L8.67493 1.09513C8.79593 0.984133 8.95793 0.917133 9.13493 0.917133H9.14293H13.2889C13.3109 0.914133 13.3359 0.913133 13.3619 0.913133C13.5569 0.913133 13.7319 1.00113 13.8479 1.13913L13.8489 1.14013C13.9519 1.32813 14.0129 1.55313 14.0129 1.79113C14.0129 1.82913 14.0109 1.86613 14.0079 1.90313V1.89813V7.07113C14.0059 7.09513 14.0049 7.12313 14.0049 7.15113C14.0049 7.33513 14.0559 7.50813 14.1439 7.65513L14.1419 7.65113C14.2149 7.75913 14.3369 7.82913 14.4749 7.82913C14.6509 7.81713 14.8119 7.75913 14.9469 7.66713L14.9439 7.66913C15.2159 7.48213 15.4499 7.26913 15.6529 7.02813L15.6569 7.02313C16.2639 6.33713 16.8239 5.57913 17.3119 4.77313L17.3509 4.70313C17.6949 4.13313 18.0669 3.43113 18.4039 2.71013L18.4659 2.56313L18.9119 1.67113C19.0669 1.22513 19.4829 0.911133 19.9719 0.911133C19.9909 0.911133 20.0099 0.911133 20.0289 0.912133H20.0259H22.6569C23.3676 0.912133 23.6343 1.23913 23.4569 1.89313H23.4559Z" fill="currentColor"></path>
  </symbol>
  <symbol fill="none" xmlns="http://www.w3.org/2000/svg" viewBox="0 0 16 16" id="ic_whatsapp">
    <path d="M7.6521 0.896897C3.86543 1.07574 0.877218 4.20381 0.888705 7.96413C0.892203 9.10942 1.17095 10.1904 1.66268 11.1456L0.907702 14.7807C0.866862 14.9773 1.04565 15.1495 1.24258 15.1033L4.83359 14.2594C5.75618 14.7152 6.79243 14.9785 7.88915 14.9951C11.7595 15.0537 14.9867 12.0054 15.1073 8.1678C15.2366 4.05412 11.8138 0.700299 7.6521 0.896897ZM11.9369 11.8477C10.8853 12.8908 9.48702 13.4653 7.99977 13.4653C7.12893 13.4653 6.29519 13.2715 5.52163 12.8893L5.02153 12.6422L2.81988 13.1596L3.28331 10.9281L3.03694 10.4495C2.63536 9.66942 2.43174 8.82585 2.43174 7.94229C2.43174 6.46703 3.01091 5.0801 4.06257 4.03691C5.10483 3.00307 6.52589 2.41923 7.99987 2.41923C9.48712 2.41927 10.8853 2.99375 11.937 4.03687C12.9886 5.08003 13.5678 6.46696 13.5678 7.94219C13.5678 9.40428 12.9792 10.8139 11.9369 11.8477Z" fill="currentColor"></path>
    <path d="M11.6146 9.5063L10.1195 9.11575C9.92289 9.06441 9.71122 9.11514 9.568 9.24791L9.20238 9.58679C9.04821 9.72969 8.81428 9.7756 8.61024 9.7005C7.90298 9.44011 6.41521 8.23667 6.03527 7.63471C5.92565 7.46107 5.94378 7.24399 6.07837 7.08555L6.39757 6.70986C6.52263 6.56266 6.54902 6.36498 6.46632 6.19482L5.83729 4.90054C5.68662 4.59054 5.25118 4.5003 4.96671 4.71918C4.54943 5.04025 4.05433 5.52816 3.99414 6.06869C3.88803 7.02169 4.33728 8.22302 6.03612 9.66552C7.99875 11.332 9.57041 11.5522 10.5937 11.3267C11.1741 11.1988 11.638 10.686 11.9307 10.2662C12.1303 9.97999 11.9727 9.59986 11.6146 9.5063Z" fill="currentColor"></path>
  </symbol>
  <symbol fill="none" xmlns="http://www.w3.org/2000/svg" viewBox="0 0 24 24" id="ic_whatsapp2">
    <path fill-rule="evenodd" clip-rule="evenodd" d="M12 0C5.37258 0 0 5.37258 0 12C0 18.6274 5.37258 24 12 24C18.6274 24 24 18.6274 24 12C24 5.37258 18.6274 0 12 0ZM12.3219 5.4C13.9902 5.4 15.5707 6.05625 16.7561 7.2375C17.9415 8.41875 18.5561 9.99375 18.6 11.6125C18.6 15.0688 15.7902 17.8688 12.3219 17.8688C11.2683 17.8688 10.2585 17.6063 9.33659 17.125L6 18L6.87805 14.7625C6.35122 13.8438 6.0439 12.75 6.0439 11.6562C6.0439 8.2 8.85366 5.4 12.3219 5.4ZM14.2976 14.6313C14.6049 14.5875 15.2195 14.2375 15.3512 13.8875C15.4829 13.5375 15.4829 13.2312 15.439 13.1C15.3951 13.0563 15.3073 13.0125 15.1317 12.925L15.1317 12.925C15 12.8375 14.2098 12.4438 14.078 12.4C13.9463 12.3563 13.8146 12.3125 13.7268 12.4875C13.639 12.6625 13.3317 13.0125 13.2439 13.1C13.1561 13.1875 13.0683 13.2313 12.8927 13.1438C12.8661 13.1305 12.8324 13.1152 12.7922 13.097C12.5676 12.9951 12.141 12.8017 11.6195 12.3562C11.1366 11.9187 10.8293 11.4375 10.7415 11.2625C10.6537 11.1312 10.7415 11.0437 10.8293 10.9563C10.8475 10.9381 10.8732 10.905 10.9033 10.8662C10.9459 10.8113 10.9973 10.745 11.0488 10.6937C11.1366 10.6062 11.1805 10.5188 11.2244 10.4313C11.2683 10.3438 11.2683 10.2563 11.2244 10.1687C11.1954 10.1399 11.052 9.78765 10.9198 9.46325C10.8516 9.29569 10.7863 9.13556 10.7415 9.03125C10.6237 8.7575 10.506 8.76341 10.4196 8.76774C10.4094 8.76826 10.3996 8.76875 10.3902 8.76875H10.0829C9.95122 8.76875 9.77561 8.76875 9.6439 8.94375C9.62648 8.9669 9.60444 8.99312 9.57932 9.02301C9.41456 9.21902 9.11707 9.57294 9.11707 10.2562C9.11707 11.0437 9.68781 11.7875 9.77561 11.875C9.77805 11.8786 9.78119 11.8834 9.78504 11.8892C9.91988 12.0929 10.917 13.5995 12.4537 14.2375C12.6985 14.3595 12.9221 14.439 13.1094 14.5056C13.1907 14.5345 13.2652 14.561 13.3317 14.5875C13.6829 14.675 14.0341 14.675 14.2976 14.6313Z" fill="currentColor"></path>
  </symbol>
</svg>